<svg width="1072" height="820" viewBox="0 0 1072 820" fill="none" xmlns="http://www.w3.org/2000/svg">
<path d="M431 208.976C429.503 212.69 427.446 214.474 424.312 216.914C419.676 220.606 415.154 224.393 410.688 228.289C409.405 229.405 408.122 230.521 406.84 231.637C406.203 232.191 405.566 232.746 404.91 233.317C397.867 239.437 390.81 245.537 383.562 251.414C377.887 256.024 372.379 260.815 366.867 265.617C364.28 267.87 361.681 270.109 359.07 272.336C358.123 273.143 358.123 273.143 357.157 273.967C355.962 274.986 354.765 276.003 353.567 277.019C350.583 279.563 347.754 282.187 345 284.976C345.912 285.542 346.824 286.108 347.764 286.69C361.233 295.467 374.164 306.843 377.967 323.03C381.442 342.425 381.114 362.494 381.152 382.132C381.165 387.337 381.235 392.541 381.316 397.745C381.583 415.073 381.722 432.395 381.694 449.725C381.693 450.653 381.691 451.581 381.689 452.537C381.688 453.467 381.686 454.396 381.685 455.354C381.669 469.413 381.905 483.451 382.305 497.504C386.262 639.666 386.262 639.666 356.688 672.758C334.007 696.531 304.835 703.808 272.848 704.873C258.833 705.16 244.859 704.327 230.883 703.37C220.509 702.672 210.132 702.349 199.741 702.046C178.468 701.418 157.237 700.355 136 698.976C135.483 708.294 135.096 717.607 134.86 726.937C134.747 731.273 134.594 735.599 134.34 739.929C133.253 758.998 133.165 774.169 146.312 789.064C155.696 799.536 166.869 808.492 178.33 816.57C178.881 817.034 179.432 817.498 180 817.976C180 818.636 180 819.296 180 819.976C125.88 819.646 71.76 819.316 16 818.976C16 688.296 16 557.616 16 422.976C37.7802 411.513 37.7802 411.513 44.5781 408.047C45.7422 407.451 45.7422 407.451 46.9298 406.844C48.5473 406.016 50.1651 405.189 51.7831 404.362C63.1263 398.565 74.4667 392.764 85.75 386.851C95.2252 381.886 104.735 376.989 114.25 372.101C128.079 364.998 141.888 357.859 155.686 350.696C161.496 347.681 167.31 344.672 173.125 341.664C174.014 341.204 174.014 341.204 174.92 340.735C182.109 337.016 189.302 333.304 196.5 329.601C197.579 329.046 197.579 329.046 198.68 328.48C202.143 326.698 205.606 324.917 209.071 323.137C216.118 319.514 223.142 315.853 230.148 312.152C241.455 306.184 252.847 300.385 264.239 294.581C274.494 289.354 284.724 284.088 294.9 278.709C304.914 273.425 315.008 268.298 325.093 263.154C334.235 258.489 343.364 253.804 352.438 249.008C363.646 243.084 374.943 237.336 386.239 231.581C396.027 226.592 405.804 221.583 415.531 216.476C416.313 216.067 417.094 215.658 417.899 215.236C420.957 213.625 423.957 212.003 426.904 210.195C429 208.976 429 208.976 431 208.976ZM227 416.976C227.445 426.76 232.687 435.72 239.812 442.238C254.289 453.742 276.44 461.34 295 460.976C295 461.636 295 462.296 295 462.976C277.906 465.267 257.221 466.66 241 459.976C239.944 459.552 238.889 459.128 237.801 458.691C222.902 451.98 212.934 439.933 207 424.976C206.505 423.491 206.505 423.491 206 421.976C173.153 427.739 139.795 451.568 120.449 478.308C106.765 498.224 99.303 520.038 103.4 544.349C106.778 559.215 116.772 571.329 129.25 579.726C137.102 584.458 145.643 588.858 155 587.976C165.083 583.905 172.953 576.961 180.563 569.39C181.845 568.129 183.168 566.911 184.496 565.699C195.956 555.034 204.212 540.848 205.031 525.019C204.909 513.08 201.361 502.641 193.125 493.855C180.002 482.252 162.012 479.059 145 479.976C142.502 480.445 140.388 481.088 138 481.976C140.601 478.76 143.411 477.994 147.312 476.851C148.422 476.519 149.532 476.186 150.676 475.844C167.903 471.35 185.509 473.201 200.953 482.031C213.227 489.867 219.947 500.694 223.188 514.726C226.746 534.539 220.295 554.166 210 570.976C207.491 574.457 204.805 577.732 202 580.976C201.141 581.999 201.141 581.999 200.266 583.043C197.939 585.802 195.575 588.446 193 590.976C224.035 586.938 253.202 574.492 277 553.976C277.967 553.144 278.934 552.311 279.93 551.453C298.014 535.544 311.398 515.56 317 491.976C317.193 491.197 317.387 490.417 317.586 489.613C320.319 472.209 316.323 455.667 306.117 441.332C293.654 426.523 273.907 418.562 254.958 416.785C245.548 416.01 236.396 415.779 227 416.976Z" fill="#1A2D56"/>
<path d="M0 2.97644C39.8472 2.42584 79.6938 2.00358 119.544 1.75087C124.26 1.72086 128.976 1.6898 133.691 1.65808C134.63 1.65179 135.569 1.64549 136.536 1.639C151.691 1.53487 166.845 1.34581 181.999 1.12477C197.575 0.899494 213.15 0.766857 228.727 0.718318C238.324 0.685552 247.914 0.582526 257.508 0.386446C264.108 0.258524 270.705 0.221465 277.306 0.252408C281.104 0.267636 284.892 0.246171 288.688 0.11551C302.439 -0.334502 314.165 0.0821114 324.695 9.80931C329.327 14.328 333.5 19.2177 337.614 24.2051C340.291 27.3143 343.14 29.9635 346.301 32.5673C349.185 34.9589 351.773 37.6449 354.398 40.3124C354.959 40.8772 355.521 41.442 356.099 42.024C357.86 43.7973 359.618 45.574 361.375 47.3514C363.713 49.7163 366.055 52.0778 368.398 54.4374C369.198 55.2498 369.198 55.2498 370.014 56.0786C372.74 58.8786 372.74 58.8786 376 60.9764C376.234 77.6748 376.41 94.3727 376.518 111.072C376.57 118.827 376.64 126.58 376.754 134.334C376.854 141.093 376.919 147.852 376.941 154.613C376.954 158.191 376.984 161.768 377.057 165.346C377.138 169.345 377.14 173.34 377.135 177.34C377.189 179.112 377.189 179.112 377.244 180.919C377.145 188.793 377.145 188.793 373.811 192.238C371.277 194.033 368.748 195.537 366 196.976C364.937 197.661 363.875 198.345 362.78 199.049C361.406 199.885 361.406 199.885 360.004 200.738C358.96 201.376 357.917 202.014 356.842 202.671C355.76 203.329 354.678 203.986 353.562 204.664C351.249 206.077 348.937 207.494 346.625 208.91C346.055 209.259 345.486 209.607 344.899 209.967C339.928 213.013 334.987 216.106 330.062 219.226C329.303 219.708 328.543 220.189 327.761 220.685C326.254 221.641 324.747 222.597 323.24 223.554C319.434 225.971 315.624 228.38 311.812 230.789C311.041 231.277 310.27 231.764 309.475 232.266C301.984 236.996 294.47 241.69 286.952 246.376C282.06 249.428 277.178 252.493 272.32 255.598C271.441 256.158 270.562 256.719 269.656 257.297C268.005 258.352 266.357 259.41 264.711 260.473C263.984 260.937 263.257 261.401 262.508 261.879C261.875 262.286 261.242 262.693 260.59 263.113C259 263.976 259 263.976 257 263.976C257 264.636 257 265.296 257 265.976C256.34 265.976 255.68 265.976 255 265.976C255.007 265.318 255.014 264.66 255.021 263.982C255.183 247.922 255.272 231.862 255.282 215.8C255.289 208.033 255.32 200.266 255.408 192.499C255.485 185.724 255.516 178.95 255.492 172.174C255.481 168.59 255.493 165.01 255.56 161.426C256.493 143.289 256.493 143.289 248.7 127.73C240.591 120.697 230.489 121.071 220.316 121.215C218.328 121.203 216.34 121.188 214.352 121.17C210.203 121.146 206.058 121.17 201.909 121.227C196.626 121.295 191.353 121.242 186.071 121.153C181.97 121.098 177.872 121.11 173.771 121.142C171.826 121.149 169.88 121.135 167.936 121.099C165.197 121.058 162.474 121.109 159.737 121.181C158.566 121.136 158.566 121.136 157.372 121.09C150.239 121.444 145.455 126.014 140.641 130.867C134.144 138.205 134.012 145.169 134.188 154.592C134.169 156.315 134.145 158.038 134.114 159.761C134.051 164.401 134.075 169.036 134.119 173.676C134.155 178.556 134.122 183.435 134.1 188.315C134.075 196.506 134.108 204.695 134.175 212.886C134.251 222.325 134.226 231.76 134.149 241.198C134.085 249.336 134.077 257.472 134.113 265.61C134.135 270.455 134.138 275.299 134.092 280.144C134.051 284.704 134.08 289.257 134.16 293.816C134.179 295.477 134.174 297.139 134.143 298.801C133.992 307.67 134.779 313.489 141.037 320.125C146.09 325.125 146.09 325.125 152 328.976C150.881 332.334 150.523 332.556 147.633 334.254C146.567 334.89 146.567 334.89 145.48 335.54C144.703 335.993 143.926 336.447 143.125 336.914C141.463 337.906 139.801 338.9 138.141 339.894C137.284 340.405 136.427 340.916 135.545 341.443C131.616 343.81 127.745 346.265 123.875 348.726C116.602 353.339 109.307 357.917 102 362.476C94.7185 367.022 87.4435 371.578 80.1875 376.164C79.418 376.65 78.6485 377.137 77.8557 377.638C74.0733 380.029 70.2933 382.425 66.5156 384.824C56.0033 391.492 45.4243 398.047 34.8064 404.546C28.5136 408.385 28.5136 408.385 22.3633 412.445C20 413.976 20 413.976 18 413.976C18 414.636 18 415.296 18 415.976C17.01 415.976 16.02 415.976 15 415.976C15.0053 415.216 15.0106 414.455 15.0161 413.672C15.3307 368.401 15.5703 323.131 15.7149 277.86C15.7324 272.402 15.7505 266.943 15.769 261.484C15.7727 260.398 15.7764 259.311 15.7802 258.192C15.8408 240.692 15.951 223.193 16.0801 205.694C16.2119 187.684 16.289 169.674 16.3172 151.663C16.3346 141.57 16.376 131.477 16.4802 121.384C18.1214 64.2324 18.1214 64.2324 2.37699 9.94693C1.26279 7.54334 0.581875 5.52687 0 2.97644Z" fill="#024487"/>
<path d="M463 234.976C477.127 234.638 491.251 234.418 505.382 234.331C511.946 234.288 518.505 234.207 525.067 234.04C531.416 233.88 537.759 233.82 544.11 233.827C546.517 233.812 548.924 233.763 551.329 233.677C563.729 233.254 573.078 234.006 582.822 242.276C590.661 249.878 596.07 257.07 596.49 268.197C596.471 270.739 596.357 273.266 596.234 275.805C596.217 277.618 596.208 279.431 596.206 281.244C596.182 285.003 596.092 288.751 595.948 292.507C595.766 297.303 595.708 302.091 595.693 306.89C595.676 310.616 595.614 314.34 595.538 318.065C595.503 319.833 595.475 321.602 595.457 323.371C595.23 338.735 595.23 338.735 590.032 344.116C586.539 346.976 586.539 346.976 584 346.976C584 347.636 584 348.296 584 348.976C583.34 348.976 582.68 348.976 582 348.976C582 349.636 582 350.296 582 350.976C580.25 352.703 580.25 352.703 578 354.601C577.257 355.233 576.515 355.865 575.75 356.516C575.173 356.998 574.595 357.48 574 357.976C576.78 360.851 579.606 363.506 582.692 366.051C589.931 372.262 595.203 377.511 596.036 387.332C596.229 390.806 596.235 394.257 596.203 397.734C596.229 399.613 596.258 401.492 596.29 403.371C596.339 407.29 596.331 411.205 596.285 415.125C596.244 419.104 596.285 423.068 596.408 427.046C597.586 465.554 597.586 465.554 586.879 478.137C572.147 491.93 546.802 488.304 528.25 487.698C525.689 487.606 523.128 487.513 520.566 487.418C514.071 487.202 507.574 487.107 501.076 487.002C488.38 486.778 475.69 486.425 463 485.976C463.353 485 463.707 484.024 464.071 483.018C468.151 471.021 468.716 459.952 468.647 447.365C468.654 445.249 468.663 443.132 468.674 441.016C468.696 435.32 468.688 429.624 468.672 423.928C468.659 417.939 468.671 411.949 468.679 405.96C468.688 395.908 468.676 385.857 468.652 375.806C468.625 364.217 468.633 352.629 468.661 341.04C468.684 331.052 468.687 321.064 468.674 311.077C468.666 305.128 468.665 299.179 468.681 293.23C468.696 287.637 468.686 282.044 468.657 276.451C468.65 274.41 468.652 272.368 468.663 270.326C468.724 258.075 467.491 248.408 463 236.976C463 236.316 463 235.656 463 234.976ZM511 281.976C510.401 284.397 510.401 284.397 510.482 287.049C510.47 288.057 510.457 289.064 510.444 290.103C510.452 291.185 510.46 292.268 510.469 293.383C510.465 294.5 510.461 295.616 510.457 296.767C510.454 299.127 510.462 301.488 510.479 303.848C510.5 307.463 510.479 311.076 510.453 314.691C510.456 316.984 510.461 319.277 510.469 321.57C510.461 322.653 510.453 323.735 510.444 324.85C510.457 325.858 510.469 326.866 510.482 327.904C510.486 328.789 510.489 329.674 510.492 330.586C511.171 333.779 512.462 334.983 515 336.976C517.645 337.363 519.865 337.515 522.504 337.473C523.583 337.475 523.583 337.475 524.685 337.477C526.202 337.475 527.719 337.464 529.236 337.443C531.559 337.414 533.879 337.422 536.201 337.435C537.677 337.429 539.153 337.421 540.629 337.41C541.323 337.413 542.017 337.416 542.731 337.419C546.436 337.37 546.436 337.37 549.682 335.774C551.453 333.358 551.381 331.799 551.388 328.818C551.398 327.767 551.407 326.716 551.417 325.633C551.411 324.498 551.405 323.364 551.398 322.195C551.403 320.448 551.403 320.448 551.407 318.665C551.409 316.2 551.404 313.735 551.391 311.271C551.375 307.491 551.391 303.713 551.41 299.933C551.408 297.542 551.404 295.15 551.398 292.758C551.405 291.623 551.411 290.489 551.417 289.32C551.407 288.269 551.398 287.218 551.388 286.135C551.385 284.746 551.385 284.746 551.381 283.329C551.175 280.93 551.175 280.93 549.682 279.179C546.934 277.214 543.885 277.529 540.629 277.543C539.91 277.538 539.191 277.532 538.451 277.527C536.932 277.521 535.413 277.522 533.894 277.53C531.574 277.539 529.256 277.51 526.936 277.478C525.458 277.477 523.981 277.477 522.504 277.48C521.466 277.464 521.466 277.464 520.408 277.446C515.744 277.514 513.881 278.353 511 281.976ZM511 383.976C510.399 386.519 510.399 386.519 510.482 389.324C510.47 390.392 510.457 391.46 510.444 392.56C510.452 393.708 510.46 394.856 510.469 396.039C510.465 397.222 510.461 398.406 510.457 399.625C510.454 402.127 510.462 404.628 510.479 407.13C510.5 410.962 510.479 414.793 510.453 418.625C510.456 421.055 510.461 423.484 510.469 425.914C510.461 427.062 510.453 428.21 510.444 429.393C510.457 430.461 510.469 431.529 510.482 432.629C510.486 433.567 510.489 434.506 510.492 435.472C511.157 438.75 512.388 439.945 515 441.976C517.645 442.363 519.865 442.515 522.504 442.473C523.583 442.475 523.583 442.475 524.685 442.477C526.202 442.475 527.719 442.464 529.236 442.443C531.559 442.414 533.879 442.422 536.201 442.435C537.677 442.429 539.153 442.421 540.629 442.41C541.323 442.413 542.017 442.416 542.731 442.419C546.432 442.368 546.432 442.368 549.682 440.784C551.477 438.322 551.381 436.683 551.388 433.651C551.398 432.563 551.407 431.475 551.417 430.354C551.411 429.179 551.405 428.003 551.398 426.793C551.403 424.982 551.403 424.982 551.407 423.135C551.409 420.581 551.404 418.026 551.391 415.471C551.375 411.558 551.391 407.646 551.41 403.732C551.408 401.253 551.404 398.773 551.398 396.293C551.405 395.12 551.411 393.947 551.417 392.738C551.407 391.647 551.398 390.556 551.388 389.432C551.385 387.993 551.385 387.993 551.381 386.525C550.93 383.507 550.143 382.131 548 379.976C545.401 379.57 543.228 379.415 540.629 379.445C539.551 379.439 539.551 379.439 538.451 379.434C536.932 379.431 535.413 379.438 533.894 379.455C531.574 379.476 529.256 379.455 526.936 379.43C525.458 379.432 523.981 379.437 522.504 379.445C521.812 379.437 521.12 379.429 520.408 379.421C515.752 379.511 513.866 380.346 511 383.976Z" fill="#024487"/>
<path d="M764 523.976C778.047 523.577 792.094 523.28 806.146 523.096C812.673 523.007 819.196 522.888 825.72 522.694C832.03 522.508 838.335 522.407 844.647 522.363C847.042 522.332 849.437 522.271 851.831 522.179C871.541 521.449 871.541 521.449 879.234 527.769C882.954 531.282 886.276 535.047 889.394 539.102C890.942 541.076 890.942 541.076 893.162 542.436C895 543.976 895 543.976 895.548 546.086C895.57 546.905 895.593 547.724 895.616 548.568C895.65 549.511 895.684 550.454 895.72 551.426C895.737 552.459 895.754 553.492 895.771 554.556C895.821 556.191 895.821 556.191 895.871 557.859C895.97 561.48 896.036 565.101 896.094 568.723C896.115 569.964 896.136 571.205 896.158 572.483C896.243 577.712 896.32 582.94 896.365 588.169C896.429 595.619 896.561 603.06 896.79 610.506C896.966 616.402 897.028 622.296 897.053 628.195C897.08 630.682 897.14 633.17 897.237 635.656C897.991 656.261 897.991 656.261 890.393 664.766C887.692 667.484 884.949 669.989 881.977 672.408C877.044 676.137 877.044 676.137 874.406 681.46C874.491 685.661 875.402 689.575 877.009 693.459C879.367 699.712 880.648 706.09 882.023 712.617C882.57 715.032 883.122 717.446 883.68 719.859C884.531 723.552 885.379 727.245 886.213 730.942C889.08 743.658 891.921 756.093 896.92 768.159C898 770.976 898 770.976 898 773.976C880.84 773.976 863.68 773.976 846 773.976C847 764.976 847 764.976 847.425 762.425C848.637 754.731 846.754 747.772 844.922 740.316C844.59 738.918 844.26 737.518 843.93 736.119C843.24 733.201 842.54 730.286 841.832 727.373C840.929 723.662 840.044 719.948 839.165 716.231C838.319 712.654 837.465 709.079 836.609 705.504C836.45 704.834 836.29 704.165 836.126 703.475C834.153 691.464 834.153 691.464 829 680.976C826.712 680.824 824.418 680.755 822.125 680.726C820.869 680.701 819.614 680.675 818.32 680.648C815.134 680.707 815.134 680.707 813.319 682.067C811.325 684.953 811.603 687.376 811.58 690.856C811.567 691.901 811.567 691.901 811.554 692.967C811.531 695.276 811.53 697.585 811.531 699.894C811.524 701.511 811.516 703.127 811.508 704.744C811.495 708.143 811.493 711.541 811.499 714.94C811.505 719.251 811.475 723.561 811.434 727.873C811.408 731.22 811.405 734.567 811.409 737.914C811.407 739.5 811.398 741.086 811.38 742.672C811.357 744.92 811.367 747.166 811.385 749.415C811.383 750.685 811.381 751.955 811.379 753.263C812.314 760.356 814.866 767.148 817 773.976C799.51 773.976 782.02 773.976 764 773.976C766 764.976 766 764.976 767.108 761.976C768.311 757.932 768.283 754.18 768.267 749.984C768.272 749.089 768.276 748.193 768.281 747.271C768.294 744.278 768.292 741.284 768.291 738.29C768.297 736.141 768.303 733.993 768.311 731.844C768.329 726.009 768.333 720.174 768.335 714.339C768.336 710.691 768.34 707.043 768.346 703.394C768.364 690.659 768.372 677.924 768.371 665.189C768.369 653.332 768.39 641.475 768.422 629.618C768.448 619.428 768.459 609.238 768.458 599.049C768.457 592.967 768.463 586.886 768.484 580.805C768.503 575.081 768.504 569.357 768.489 563.632C768.487 561.538 768.492 559.443 768.504 557.349C768.637 542.948 768.637 542.948 764.858 529.14C764 526.976 764 526.976 764 523.976ZM813.08 568.66C809.717 574.022 810.308 579.468 810.371 585.668C810.37 587.019 810.368 588.37 810.364 589.721C810.361 592.546 810.376 595.371 810.403 598.196C810.437 601.813 810.431 605.429 810.412 609.047C810.402 611.834 810.411 614.621 810.426 617.408C810.433 619.389 810.426 621.37 810.419 623.351C810.434 624.556 810.45 625.761 810.467 627.002C810.473 628.062 810.479 629.121 810.485 630.213C811.13 633.676 812.224 634.864 815 636.976C817.633 637.375 819.84 637.539 822.469 637.508C823.186 637.511 823.903 637.515 824.642 637.519C826.155 637.522 827.668 637.515 829.181 637.498C831.493 637.476 833.802 637.498 836.113 637.523C837.586 637.521 839.059 637.516 840.531 637.508C841.22 637.516 841.909 637.524 842.618 637.532C845.768 637.471 847.641 637.248 850.181 635.324C852.504 632.326 852.506 630.662 852.518 626.894C852.53 625.666 852.543 624.438 852.556 623.173C852.549 621.837 852.54 620.5 852.531 619.164C852.534 617.789 852.538 616.414 852.543 615.04C852.549 612.161 852.54 609.283 852.521 606.405C852.499 602.719 852.512 599.035 852.536 595.349C852.55 592.511 852.546 589.673 852.535 586.835C852.533 585.477 852.536 584.118 852.545 582.759C852.555 580.859 852.537 578.959 852.518 577.058C852.514 575.978 852.511 574.897 852.508 573.784C851.875 570.288 850.8 569.105 848 566.976C844.605 566.344 844.605 566.344 840.785 566.41C840.092 566.404 839.4 566.398 838.686 566.391C837.224 566.384 835.763 566.387 834.301 566.4C832.072 566.414 829.848 566.38 827.619 566.342C826.195 566.341 824.771 566.343 823.348 566.348C822.059 566.347 820.77 566.346 819.442 566.345C815.953 566.786 815.953 566.786 813.08 568.66Z" fill="#1A2D56"/>
<path d="M813.13 235.411C813.947 235.399 814.763 235.388 815.605 235.375C818.305 235.342 821.003 235.34 823.703 235.34C825.584 235.329 827.465 235.318 829.346 235.307C833.29 235.287 837.234 235.284 841.178 235.29C846.22 235.296 851.261 235.252 856.302 235.194C860.189 235.157 864.075 235.152 867.961 235.157C869.819 235.154 871.677 235.14 873.535 235.114C889.871 234.913 889.871 234.913 895.202 239.403C898 242.447 898 242.447 898 244.976C898.845 245.373 898.845 245.373 899.706 245.777C904.722 248.4 908.15 250.976 911 255.976C912.579 263.424 911.99 271.287 911.812 278.851C911.751 282.953 911.716 287.054 911.707 291.156C911.703 292.126 911.699 293.097 911.695 294.097C911.752 300.277 912.441 305.431 915.132 311.09C916 312.976 916 312.976 916 315.976C898.51 315.976 881.02 315.976 863 315.976C864.074 308.458 864.074 308.458 865.562 304.539C867.035 299.838 867.331 295.427 867.375 290.539C867.389 289.84 867.402 289.142 867.416 288.422C867.388 284.669 867.388 284.669 865.94 281.284C862.989 279.295 859.995 279.568 856.559 279.613C855.835 279.613 855.112 279.612 854.366 279.612C852.839 279.614 851.312 279.624 849.784 279.64C847.443 279.664 845.102 279.661 842.76 279.654C841.276 279.66 839.792 279.667 838.309 279.676C837.606 279.675 836.904 279.674 836.181 279.673C832.142 279.624 832.142 279.624 829 281.976C828.694 284.348 828.694 284.348 828.741 287.129C828.735 288.203 828.729 289.278 828.722 290.385C828.726 291.549 828.73 292.714 828.734 293.914C828.732 295.105 828.731 296.296 828.729 297.523C828.727 300.045 828.731 302.567 828.739 305.089C828.75 308.96 828.739 312.831 828.727 316.703C828.728 319.148 828.73 321.594 828.734 324.039C828.73 325.203 828.726 326.368 828.722 327.568C828.728 328.642 828.735 329.717 828.741 330.824C828.743 331.773 828.744 332.722 828.746 333.699C828.782 336.175 828.782 336.175 831 337.976C833.444 338.162 833.444 338.162 836.31 337.962C837.423 337.914 838.536 337.866 839.683 337.817C841.505 337.735 841.505 337.735 843.363 337.652C846.627 337.573 849.89 337.506 853.154 337.444C856.547 337.373 859.93 337.266 863.318 337.075C877.555 336.349 890.937 336.648 902.254 346.301C915.558 359.933 914.015 380.328 913.871 398.121C913.83 400.503 913.786 402.886 913.738 405.268C913.618 411.276 913.689 417.264 913.81 423.271C914.55 466.16 914.55 466.16 902.996 478.629C888.863 490.936 867.801 488.74 850.318 488.118C846.462 488.012 842.611 488.03 838.754 488.05C835.003 488.058 831.255 488.005 827.504 487.933C825.731 487.902 823.957 487.887 822.183 487.887C813.816 487.846 806.992 487.713 800.661 481.752C798.306 479.261 796.167 476.633 794 473.976C792.49 472.567 790.955 471.183 789.375 469.851C784.049 465.335 784.049 465.335 783.742 463.095C783.737 462.33 783.733 461.565 783.729 460.777C783.713 459.474 783.713 459.474 783.698 458.145C783.696 457.203 783.694 456.26 783.691 455.289C783.666 453.29 783.641 451.292 783.615 449.293C783.587 446.144 783.563 442.996 783.544 439.847C783.522 436.807 783.482 433.767 783.441 430.726C783.441 429.8 783.441 428.874 783.441 427.919C783.357 422.271 782.508 417.515 780.641 412.177C780 409.976 780 409.976 780 405.976C797.49 405.976 814.98 405.976 833 405.976C832.01 409.276 831.02 412.576 830 415.976C828.842 420.609 828.778 424.79 828.75 429.539C828.729 430.402 828.709 431.265 828.688 432.154C828.682 432.984 828.677 433.813 828.672 434.668C828.663 435.423 828.653 436.177 828.644 436.955C828.878 439.023 828.878 439.023 830.087 440.719C832.993 442.63 835.485 442.383 838.934 442.41C839.608 442.415 840.282 442.42 840.977 442.426C842.402 442.432 843.827 442.431 845.251 442.422C847.427 442.414 849.6 442.443 851.775 442.474C853.161 442.476 854.548 442.475 855.934 442.473C857.822 442.475 857.822 442.475 859.748 442.478C863.653 441.876 864.581 441.027 867 437.976C867.574 435.444 867.574 435.444 867.454 432.657C867.454 431.066 867.454 431.066 867.453 429.443C867.433 428.304 867.412 427.165 867.391 425.992C867.382 424.236 867.382 424.236 867.373 422.444C867.351 418.705 867.301 414.966 867.25 411.226C867.23 408.691 867.212 406.156 867.195 403.621C867.151 397.406 867.084 391.191 867 384.976C863.69 382.98 861.385 382.791 857.555 382.991C856.462 383.039 855.369 383.087 854.242 383.136C853.06 383.19 851.878 383.245 850.66 383.301C848.126 383.363 845.591 383.42 843.057 383.471C839.076 383.552 835.12 383.661 831.145 383.878C817.061 384.611 803.967 384.183 792.77 374.672C780.08 361.733 781.228 343.123 781.283 326.129C781.339 321.349 781.455 316.572 781.567 311.793C781.644 306.951 781.58 302.115 781.516 297.273C781.47 292.566 781.507 287.863 781.569 283.156C781.591 280.928 781.588 278.7 781.561 276.472C781.418 258.38 781.418 258.38 787.804 251.085C791.347 247.547 795.126 244.401 799.147 241.421C801.158 239.954 801.158 239.954 803.029 237.589C806.09 235.084 809.348 235.395 813.13 235.411Z" fill="#024487"/>
<path d="M659 234.976C678.14 234.976 697.28 234.976 717 234.976C716.01 238.936 715.02 242.896 714 246.976C713.065 252.584 713.384 255.916 714.746 261.199C714.948 262.023 715.15 262.847 715.358 263.696C715.804 265.512 716.255 267.327 716.71 269.141C717.997 274.269 719.243 279.406 720.496 284.543C720.772 285.669 721.047 286.795 721.331 287.955C724.664 301.608 727.81 315.303 730.967 328.998C732.686 336.453 734.41 343.906 736.137 351.359C736.388 352.444 736.388 352.444 736.644 353.55C740.062 368.299 743.566 383.026 747.111 397.745C749.447 407.447 751.751 417.155 754.012 426.875C754.263 427.953 754.514 429.031 754.772 430.142C755.981 435.338 757.187 440.534 758.386 445.732C758.82 447.6 759.254 449.468 759.688 451.336C759.878 452.166 760.068 452.996 760.264 453.852C762.17 462.03 764.19 469.981 768.188 477.414C771 482.663 771 482.663 771 485.976C753.51 485.976 736.02 485.976 718 485.976C718.66 483.006 719.32 480.036 720 476.976C720.304 468.653 717.612 460.121 715.688 452.101C715.388 450.784 715.09 449.466 714.791 448.148C714.493 446.898 714.194 445.648 713.887 444.359C713.621 443.229 713.355 442.099 713.081 440.934C711.82 437.485 711.073 436.015 708 433.976C704.911 433.408 701.88 433.44 698.746 433.48C697.849 433.479 696.952 433.477 696.027 433.476C694.133 433.478 692.24 433.489 690.346 433.51C687.444 433.539 684.544 433.53 681.643 433.517C679.802 433.524 677.962 433.532 676.121 433.543C675.252 433.54 674.384 433.537 673.488 433.534C672.277 433.553 672.277 433.553 671.041 433.572C670.331 433.578 669.622 433.583 668.89 433.589C666.445 434.09 665.556 435.065 664 436.976C663.211 438.816 663.211 438.816 662.754 440.863C662.558 441.629 662.362 442.395 662.161 443.184C661.865 444.412 661.865 444.412 661.562 445.664C661.352 446.507 661.142 447.349 660.925 448.218C660.492 449.955 660.062 451.694 659.636 453.433C659.041 455.813 658.407 458.178 657.754 460.543C657.563 461.25 657.372 461.958 657.176 462.687C656.656 464.613 656.129 466.537 655.602 468.461C654.508 474.85 656.222 479.755 658 485.976C640.18 485.976 622.36 485.976 604 485.976C604.985 482.038 606.383 479.2 608.234 475.605C612.984 465.826 615.004 455.49 617.25 444.914C618.082 441.088 618.923 437.265 619.766 433.441C619.996 432.391 620.226 431.34 620.463 430.258C622.88 419.322 625.499 408.436 628.117 397.547C632.119 380.901 636.06 364.243 639.93 347.566C640.175 346.511 640.419 345.456 640.672 344.37C642.158 337.963 643.642 331.556 645.126 325.149C647.133 316.48 649.143 307.812 651.154 299.144C651.839 296.186 652.524 293.228 653.209 290.27C653.423 289.345 653.638 288.42 653.859 287.467C654.279 285.653 654.698 283.839 655.115 282.025C656.184 277.397 657.294 272.784 658.466 268.181C658.703 267.234 658.94 266.287 659.185 265.311C659.636 263.516 660.098 261.723 660.571 259.934C662.119 253.732 662.026 248.993 659.938 242.851C659 239.976 659 239.976 659 234.976ZM687 310.976C686.86 311.706 686.72 312.436 686.576 313.187C685.886 316.784 685.193 320.38 684.5 323.976C684.371 324.648 684.242 325.319 684.109 326.01C682.389 334.938 680.628 343.856 678.82 352.766C678.638 353.667 678.455 354.569 678.267 355.498C676.802 362.74 676.802 362.74 676.077 366.269C675.56 368.788 675.049 371.308 674.539 373.828C674.383 374.579 674.227 375.33 674.066 376.103C672.417 382.64 672.417 382.64 674.16 388.764C676.671 390.418 678.443 390.364 681.438 390.375C682.497 390.379 683.557 390.383 684.648 390.387C685.754 390.375 686.86 390.363 688 390.351C689.106 390.363 690.212 390.375 691.352 390.387C692.411 390.383 693.471 390.379 694.562 390.375C695.533 390.371 696.504 390.368 697.504 390.365C699.991 390.162 699.991 390.162 701.696 388.815C703.262 386.993 703.262 386.993 702.952 384.333C702.757 383.288 702.561 382.243 702.359 381.166C702.149 380.001 701.938 378.836 701.721 377.635C701.483 376.428 701.245 375.22 701 373.976C700.682 372.287 700.682 372.287 700.357 370.563C699.678 367.018 698.968 363.479 698.25 359.941C697.991 358.66 697.732 357.378 697.466 356.057C696.923 353.374 696.378 350.691 695.832 348.008C695.133 344.576 694.443 341.143 693.754 337.709C693.091 334.411 692.42 331.114 691.75 327.816C691.504 326.587 691.258 325.358 691.005 324.092C690.771 322.953 690.538 321.814 690.297 320.64C690.094 319.64 689.891 318.64 689.683 317.61C689.047 315.159 688.23 313.179 687 310.976Z" fill="#024487"/>
<path d="M637 523.976C656.14 523.976 675.28 523.976 695 523.976C694.01 527.606 693.02 531.236 692 534.976C690.707 540.126 691.443 544.145 692.746 549.199C692.948 550.023 693.15 550.847 693.358 551.696C693.804 553.512 694.255 555.327 694.71 557.141C695.997 562.269 697.243 567.406 698.496 572.543C698.772 573.669 699.047 574.795 699.331 575.955C702.664 589.608 705.81 603.303 708.967 616.998C710.686 624.453 712.41 631.906 714.137 639.359C714.388 640.444 714.388 640.444 714.644 641.55C718.062 656.299 721.566 671.026 725.111 685.745C727.447 695.447 729.751 705.155 732.012 714.875C732.263 715.953 732.514 717.031 732.772 718.142C733.981 723.338 735.187 728.534 736.386 733.732C736.82 735.6 737.254 737.468 737.688 739.336C737.878 740.166 738.068 740.996 738.264 741.852C740.17 750.03 742.19 757.981 746.188 765.414C749 770.663 749 770.663 749 773.976C731.51 773.976 714.02 773.976 696 773.976C696.583 771.063 697.175 768.152 697.793 765.246C698.515 758.367 696.497 751.629 694.877 744.991C694.311 742.657 693.776 740.317 693.244 737.974C692.89 736.479 692.534 734.983 692.176 733.488C692.018 732.793 691.861 732.098 691.699 731.383C690.645 727.177 689.712 724.35 686 721.976C682.909 721.415 679.88 721.44 676.746 721.48C675.849 721.479 674.952 721.477 674.027 721.476C672.133 721.478 670.24 721.489 668.346 721.51C665.444 721.539 662.544 721.53 659.643 721.517C657.802 721.524 655.962 721.532 654.121 721.543C653.252 721.54 652.384 721.537 651.488 721.534C650.277 721.553 650.277 721.553 649.041 721.572C648.331 721.578 647.622 721.583 646.89 721.589C644.423 722.095 643.548 723.023 642 724.976C640.977 727.827 640.977 727.827 640.246 731.113C639.949 732.331 639.652 733.548 639.346 734.803C639.046 736.077 638.746 737.351 638.438 738.664C638.134 739.919 637.83 741.174 637.518 742.467C636.931 744.894 636.35 747.322 635.774 749.752C635.137 752.404 634.465 755.042 633.77 757.68C632.373 763.664 634.312 768.068 636 773.976C618.18 773.976 600.36 773.976 582 773.976C583.45 769.627 584.743 766.44 586.889 762.532C590.39 755.626 592.122 748.608 593.777 741.086C594.107 739.643 594.438 738.2 594.771 736.758C595.475 733.687 596.171 730.614 596.859 727.54C597.956 722.633 599.075 717.732 600.198 712.831C601.546 706.938 602.89 701.043 604.228 695.148C607.266 681.764 610.393 668.403 613.539 655.045C614.439 651.22 615.334 647.395 616.228 643.569C619.142 631.104 622.074 618.644 625.051 606.193C626.752 599.077 628.445 591.958 630.132 584.838C631.361 579.654 632.602 574.472 633.852 569.292C634.626 566.073 635.388 562.852 636.147 559.629C636.503 558.13 636.863 556.632 637.229 555.135C639.711 544.951 640.427 538.029 637 527.976C637 526.656 637 525.336 637 523.976ZM665 600.976C663.317 609.278 661.638 617.58 659.967 625.883C659.19 629.74 658.412 633.596 657.63 637.451C656.873 641.178 656.122 644.907 655.373 648.636C655.088 650.051 654.802 651.467 654.513 652.881C651.83 664.335 651.83 664.335 651 675.976C653.641 678.618 654.878 678.234 658.559 678.242C659.667 678.245 660.774 678.247 661.916 678.25C663.078 678.242 664.24 678.234 665.438 678.226C666.596 678.234 667.754 678.242 668.947 678.25C670.611 678.246 670.611 678.246 672.309 678.242C673.328 678.24 674.346 678.238 675.396 678.235C678.235 678.159 678.235 678.159 681 675.976C680.268 667.846 678.721 659.91 677.129 651.914C676.844 650.472 676.558 649.03 676.273 647.588C675.678 644.585 675.08 641.583 674.48 638.581C673.711 634.728 672.953 630.873 672.197 627.017C671.614 624.048 671.023 621.08 670.429 618.113C670.146 616.691 669.866 615.268 669.588 613.845C669.202 611.866 668.804 609.89 668.405 607.914C668.181 606.789 667.958 605.663 667.727 604.504C667.367 603.253 667.367 603.253 667 601.976C666.34 601.646 665.68 601.316 665 600.976Z" fill="#1A2D56"/>
<path d="M960 523.976C979.14 523.976 998.28 523.976 1018 523.976C1017.01 527.606 1016.02 531.236 1015 534.976C1014.11 539.424 1013.93 540.851 1014.91 544.955C1015.13 545.929 1015.36 546.903 1015.59 547.907C1015.97 549.486 1015.97 549.486 1016.36 551.098C1016.75 552.762 1016.75 552.762 1017.15 554.46C1018 558.114 1018.88 561.764 1019.75 565.414C1020.36 567.978 1020.96 570.542 1021.56 573.106C1023.36 580.733 1025.18 588.355 1027 595.976C1027.48 597.993 1027.96 600.009 1028.44 602.026C1030.16 609.245 1031.89 616.463 1033.62 623.68C1037.27 638.86 1040.86 654.053 1044.43 669.25C1045.47 673.675 1046.52 678.1 1047.56 682.524C1050.84 696.431 1054.1 710.341 1057.22 724.285C1057.95 727.481 1058.67 730.676 1059.39 733.871C1060.04 736.742 1060.66 739.616 1061.29 742.492C1063.38 751.841 1065.96 759.943 1070.64 768.328C1072 770.976 1072 770.976 1072 773.976C1054.51 773.976 1037.02 773.976 1019 773.976C1019.66 771.666 1020.32 769.356 1021 766.976C1021.32 761.423 1020.71 756.525 1019.39 751.117C1019.22 750.405 1019.05 749.694 1018.88 748.961C1018.53 747.47 1018.17 745.981 1017.8 744.494C1017.25 742.222 1016.72 739.946 1016.2 737.668C1015.85 736.213 1015.49 734.759 1015.14 733.305C1014.99 732.628 1014.83 731.952 1014.67 731.256C1013.62 727.095 1012.66 724.338 1009 721.976C1005.98 721.437 1003.03 721.487 999.965 721.551C999.09 721.554 998.215 721.557 997.313 721.561C995.466 721.571 993.62 721.591 991.773 721.62C988.944 721.664 986.116 721.681 983.287 721.693C981.492 721.707 979.697 721.722 977.902 721.738C977.055 721.746 976.209 721.753 975.336 721.761C971.989 721.815 969.196 721.911 966 722.976C966 723.636 966 724.296 966 724.976C965.34 724.976 964.68 724.976 964 724.976C963.91 726.005 963.82 727.034 963.727 728.094C962.761 735.839 960.384 743.369 958.352 750.887C957.88 752.698 957.88 752.698 957.398 754.547C957.106 755.637 956.814 756.728 956.513 757.852C955.553 763.699 957.37 768.273 959 773.976C941.18 773.976 923.36 773.976 905 773.976C906.452 769.62 907.566 766.879 909.77 763.094C914.178 754.395 915.887 744.959 917.95 735.487C918.966 730.821 920.017 726.162 921.066 721.503C921.604 719.108 922.14 716.713 922.674 714.317C924.883 704.429 927.214 694.574 929.599 684.727C933.093 670.295 936.509 655.845 939.859 641.379C940.028 640.652 940.196 639.926 940.369 639.178C942.1 631.706 943.826 624.234 945.547 616.76C948.783 602.713 952.04 588.676 955.504 574.683C955.769 573.605 956.034 572.527 956.308 571.416C957.516 566.507 958.738 561.601 959.99 556.703C963.087 544.342 962.845 536.777 960 523.976ZM988 601.976C986.169 610.885 984.343 619.795 982.524 628.707C981.679 632.845 980.832 636.982 979.981 641.119C979.16 645.112 978.344 649.107 977.531 653.102C977.22 654.624 976.907 656.147 976.593 657.669C976.152 659.804 975.718 661.939 975.285 664.075C975.036 665.29 974.788 666.504 974.531 667.756C974.061 670.608 973.731 673.101 974 675.976C976.641 678.618 977.878 678.234 981.559 678.242C982.667 678.245 983.774 678.247 984.916 678.25C986.078 678.242 987.24 678.234 988.438 678.226C989.596 678.234 990.754 678.242 991.947 678.25C993.611 678.246 993.611 678.246 995.309 678.242C996.328 678.24 997.346 678.238 998.396 678.235C1001.24 678.159 1001.24 678.159 1004 675.976C1003.28 667.825 1001.68 659.887 1000.06 651.879C999.768 650.434 999.478 648.99 999.188 647.545C998.431 643.772 997.668 639.999 996.905 636.227C996.125 632.366 995.349 628.504 994.572 624.642C993.052 617.086 991.528 609.531 990 601.976C989.34 601.976 988.68 601.976 988 601.976Z" fill="#1A2D56"/>
<path d="M463 523.976C477.386 523.86 491.772 523.772 506.159 523.717C512.839 523.691 519.519 523.656 526.198 523.599C532.643 523.545 539.088 523.515 545.533 523.502C547.994 523.493 550.454 523.475 552.915 523.448C556.358 523.412 559.8 523.407 563.243 523.409C564.263 523.391 565.283 523.373 566.334 523.354C573.284 523.405 573.284 523.405 576.693 526.126C577.835 527.537 577.835 527.537 579 528.976C580.214 529.949 581.447 530.897 582.693 531.827C590.106 537.803 594.695 543.082 595.819 552.765C596.178 558.555 596.214 564.314 596.168 570.113C596.191 572.645 596.217 575.176 596.247 577.707C596.292 582.996 596.281 588.282 596.23 593.57C596.173 599.63 596.243 605.679 596.377 611.737C596.503 617.629 596.514 623.517 596.482 629.41C596.481 631.886 596.51 634.362 596.573 636.838C596.849 649.535 596.042 659.001 587.42 668.845C580.193 676.139 573.468 682.238 562.816 682.318C561.638 682.227 560.46 682.136 559.246 682.043C557.972 682.03 556.698 682.016 555.385 682.003C552.066 681.953 548.766 681.82 545.451 681.638C540.741 681.406 536.023 681.349 531.308 681.257C528.812 681.199 526.316 681.113 523.822 680.997C522.706 680.952 521.589 680.908 520.439 680.861C519.458 680.812 518.477 680.763 517.466 680.712C515.007 680.804 515.007 680.804 513.185 682.044C511.368 685.007 511.61 687.558 511.596 691.011C511.586 692.08 511.586 692.08 511.575 693.171C511.557 695.532 511.561 697.893 511.566 700.254C511.562 701.902 511.557 703.551 511.551 705.199C511.542 708.662 511.544 712.124 511.554 715.587C511.565 719.995 511.545 724.402 511.516 728.81C511.498 732.22 511.498 735.631 511.504 739.041C511.504 740.664 511.498 742.287 511.485 743.91C511.427 752.678 511.845 760.391 515.142 768.673C516 770.976 516 770.976 516 773.976C498.51 773.976 481.02 773.976 463 773.976C464.65 768.696 466.3 763.416 468 757.976C468.419 754.44 468.684 751.422 468.635 747.929C468.647 746.597 468.647 746.597 468.659 745.238C468.678 742.328 468.663 739.42 468.647 736.51C468.654 734.397 468.663 732.285 468.674 730.172C468.696 724.48 468.688 718.788 468.672 713.095C468.659 707.11 468.671 701.124 468.679 695.138C468.688 685.089 468.676 675.04 468.652 664.991C468.625 653.411 468.633 641.831 468.661 630.251C468.684 620.269 468.687 610.287 468.674 600.305C468.666 594.361 468.665 588.417 468.681 582.472C468.696 576.88 468.686 571.288 468.657 565.696C468.65 563.657 468.652 561.617 468.663 559.578C468.726 546.847 467.344 535.98 463 523.976ZM511 570.976C510.396 573.894 510.396 573.894 510.482 577.166C510.47 578.417 510.457 579.669 510.444 580.958C510.451 582.32 510.46 583.681 510.469 585.043C510.466 586.442 510.462 587.842 510.457 589.242C510.451 592.171 510.46 595.1 510.479 598.03C510.501 601.785 510.488 605.539 510.464 609.295C510.45 612.183 510.454 615.072 510.465 617.96C510.467 619.345 510.464 620.73 510.455 622.114C510.445 624.048 510.463 625.982 510.482 627.916C510.486 629.017 510.489 630.117 510.492 631.251C510.755 634.073 510.755 634.073 512.824 635.831C516 637.503 518.678 637.366 522.25 637.375C522.945 637.378 523.64 637.381 524.356 637.384C525.822 637.386 527.288 637.38 528.754 637.368C530.993 637.352 533.23 637.367 535.469 637.387C536.896 637.385 538.323 637.381 539.75 637.375C541.044 637.372 542.338 637.368 543.672 637.365C547.304 636.941 548.474 636.545 551 633.976C551.608 631.167 551.608 631.167 551.518 627.916C551.53 626.668 551.543 625.42 551.556 624.134C551.549 622.77 551.54 621.407 551.531 620.043C551.534 618.644 551.538 617.246 551.543 615.847C551.549 612.916 551.54 609.985 551.521 607.053C551.499 603.299 551.512 599.546 551.536 595.792C551.55 592.904 551.546 590.015 551.535 587.127C551.533 585.743 551.536 584.359 551.545 582.975C551.555 581.039 551.537 579.102 551.518 577.166C551.514 576.065 551.511 574.964 551.508 573.829C550.88 570.3 549.83 569.117 547 566.976C543.587 566.36 543.587 566.36 539.75 566.445C538.707 566.439 538.707 566.439 537.644 566.434C536.178 566.431 534.712 566.438 533.246 566.455C531.007 566.476 528.771 566.455 526.531 566.43C525.104 566.432 523.677 566.437 522.25 566.445C520.309 566.452 520.309 566.452 518.328 566.459C514.354 567.077 513.429 567.841 511 570.976Z" fill="#1A2D56"/>
<path d="M932 234.976C989.915 235.471 989.915 235.471 1049 235.976C1055 269.976 1055 269.976 1056 282.976C1053.97 282.332 1051.94 281.687 1049.84 281.023C1037.08 277.541 1023.62 278.296 1010.5 278.226C1007.83 278.2 1005.15 278.168 1002.48 278.137C995.987 278.063 989.494 278.011 983 277.976C983 278.636 983 279.296 983 279.976C982.34 279.976 981.68 279.976 981 279.976C980.924 287.612 980.871 295.247 980.835 302.883C980.82 305.482 980.8 308.08 980.774 310.679C980.737 314.41 980.72 318.14 980.707 321.871C980.692 323.037 980.676 324.202 980.66 325.403C980.66 327.025 980.66 327.025 980.659 328.679C980.653 329.631 980.646 330.584 980.639 331.566C981.064 334.405 981.724 335.282 984 336.976C987.212 337.641 990.477 337.497 993.75 337.476C995.153 337.475 995.153 337.475 996.585 337.474C1005.2 337.292 1012.05 335.151 1020 331.976C1020.66 331.976 1021.32 331.976 1022 331.976C1022 349.796 1022 367.616 1022 385.976C1013 383.976 1013 383.976 1010.2 382.867C1005.1 381.449 1000.02 381.689 994.75 381.726C993.649 381.719 992.548 381.711 991.414 381.703C990.365 381.706 989.315 381.708 988.234 381.711C987.278 381.713 986.321 381.715 985.335 381.718C982.808 381.752 982.808 381.752 981 383.976C980.693 386.389 980.693 386.389 980.741 389.221C980.735 390.315 980.729 391.41 980.722 392.537C980.726 393.724 980.73 394.91 980.734 396.133C980.732 397.346 980.731 398.559 980.729 399.809C980.727 402.378 980.731 404.947 980.739 407.516C980.75 411.46 980.739 415.404 980.727 419.348C980.728 421.838 980.73 424.329 980.734 426.82C980.73 428.007 980.726 429.193 980.722 430.416C980.728 431.51 980.735 432.605 980.741 433.732C980.743 434.699 980.744 435.665 980.746 436.661C980.777 439.171 980.777 439.171 983 440.976C985.821 441.298 985.821 441.298 989.171 441.267C990.47 441.28 991.77 441.292 993.108 441.306C994.537 441.309 995.966 441.311 997.395 441.312C998.863 441.319 1000.33 441.326 1001.8 441.333C1004.89 441.345 1007.97 441.348 1011.06 441.347C1014.98 441.347 1018.91 441.374 1022.83 441.409C1025.87 441.431 1028.91 441.435 1031.95 441.434C1033.39 441.436 1034.84 441.445 1036.28 441.46C1044.86 441.545 1052.36 440.715 1060.52 437.835C1063 436.976 1063 436.976 1065 436.976C1063.73 453.427 1060.71 469.702 1058 485.976C1016.42 485.976 974.84 485.976 932 485.976C934 476.976 934 476.976 935.108 473.978C936.313 469.922 936.283 466.155 936.267 461.946C936.272 461.047 936.276 460.147 936.281 459.221C936.294 456.214 936.292 453.206 936.291 450.199C936.297 448.04 936.303 445.881 936.311 443.722C936.329 437.861 936.333 431.999 936.335 426.137C936.336 422.472 936.34 418.807 936.346 415.142C936.364 402.349 936.372 389.555 936.371 376.762C936.369 364.85 936.39 352.938 936.422 341.027C936.448 330.79 936.459 320.554 936.458 310.318C936.457 304.208 936.463 298.099 936.484 291.99C936.503 286.24 936.504 280.489 936.489 274.739C936.487 272.634 936.492 270.53 936.504 268.426C936.643 253.984 936.643 253.984 932.858 240.137C932 237.976 932 237.976 932 234.976Z" fill="#024487"/>
</svg>
