<svg width="1200" height="1121" viewBox="0 0 1200 1121" fill="none" xmlns="http://www.w3.org/2000/svg">
<path d="M494 265C492.503 268.714 490.446 270.497 487.312 272.938C482.676 276.63 478.154 280.416 473.688 284.312C472.405 285.428 471.122 286.544 469.84 287.66C469.203 288.215 468.566 288.769 467.91 289.34C460.867 295.461 453.81 301.56 446.562 307.438C440.887 312.047 435.379 316.838 429.867 321.641C427.28 323.894 424.681 326.133 422.07 328.359C421.123 329.167 421.123 329.167 420.157 329.991C418.962 331.009 417.765 332.027 416.567 333.042C413.583 335.586 410.754 338.211 408 341C408.912 341.566 409.824 342.131 410.764 342.714C424.233 351.491 437.164 362.866 440.967 379.053C444.442 398.448 444.114 418.518 444.152 438.156C444.165 443.361 444.235 448.564 444.316 453.769C444.583 471.096 444.722 488.418 444.694 505.748C444.692 506.676 444.691 507.605 444.689 508.561C444.688 509.49 444.686 510.42 444.685 511.378C444.669 525.437 444.905 539.475 445.305 553.528C449.262 695.689 449.262 695.689 419.688 728.781C397.007 752.555 367.835 759.832 335.848 760.896C321.833 761.184 307.859 760.351 293.883 759.394C283.509 758.695 273.132 758.373 262.741 758.07C241.468 757.442 220.237 756.378 199 755C198.483 764.318 198.096 773.631 197.86 782.96C197.747 787.296 197.594 791.622 197.34 795.953C196.253 815.022 196.165 830.192 209.312 845.088C218.696 855.559 229.869 864.515 241.33 872.594C241.881 873.058 242.432 873.522 243 874C243 874.66 243 875.32 243 876C188.88 875.67 134.76 875.34 79 875C79 744.32 79 613.64 79 479C100.78 467.537 100.78 467.537 107.578 464.07C108.742 463.475 108.742 463.475 109.93 462.867C111.547 462.04 113.165 461.212 114.783 460.386C126.126 454.589 137.467 448.788 148.75 442.875C158.225 437.91 167.735 433.012 177.25 428.125C191.079 421.022 204.888 413.883 218.686 406.72C224.496 403.705 230.31 400.696 236.125 397.688C237.014 397.228 237.014 397.228 237.92 396.759C245.109 393.039 252.302 389.328 259.5 385.625C260.579 385.07 260.579 385.07 261.68 384.503C265.143 382.721 268.606 380.94 272.071 379.161C279.118 375.538 286.142 371.877 293.148 368.176C304.455 362.207 315.847 356.409 327.239 350.604C337.494 345.377 347.724 340.112 357.9 334.733C367.914 329.448 378.008 324.322 388.093 319.177C397.235 314.512 406.364 309.827 415.438 305.031C426.646 299.108 437.943 293.36 449.239 287.604C459.027 282.615 468.804 277.607 478.531 272.5C479.313 272.091 480.094 271.681 480.899 271.26C483.957 269.648 486.957 268.027 489.904 266.219C492 265 492 265 494 265ZM290 473C290.445 482.784 295.687 491.743 302.812 498.262C317.289 509.766 339.44 517.364 358 517C358 517.66 358 518.32 358 519C340.906 521.29 320.221 522.684 304 516C302.944 515.576 301.889 515.152 300.801 514.715C285.902 508.004 275.934 495.957 270 481C269.505 479.515 269.505 479.515 269 478C236.153 483.763 202.795 507.592 183.449 534.332C169.765 554.247 162.303 576.062 166.4 600.373C169.778 615.239 179.772 627.353 192.25 635.75C200.102 640.481 208.643 644.882 218 644C228.083 639.928 235.953 632.985 243.563 625.414C244.845 624.153 246.168 622.934 247.496 621.723C258.956 611.057 267.212 596.871 268.031 581.043C267.909 569.104 264.361 558.665 256.125 549.879C243.002 538.275 225.012 535.082 208 536C205.502 536.469 203.388 537.111 201 538C203.601 534.784 206.411 534.018 210.312 532.875C211.422 532.542 212.532 532.21 213.676 531.867C230.903 527.373 248.509 529.224 263.953 538.055C276.227 545.891 282.947 556.717 286.188 570.75C289.746 590.563 283.295 610.19 273 627C270.491 630.48 267.805 633.756 265 637C264.141 638.023 264.141 638.023 263.266 639.066C260.939 641.825 258.575 644.47 256 647C287.035 642.961 316.202 630.515 340 610C340.967 609.167 341.934 608.335 342.93 607.477C361.014 591.568 374.398 571.583 380 548C380.193 547.22 380.387 546.44 380.586 545.637C383.319 528.232 379.323 511.691 369.117 497.355C356.654 482.546 336.907 474.585 317.958 472.809C308.548 472.033 299.396 471.802 290 473Z" fill="#1A2D56"/>
<path d="M63 59C102.847 58.4494 142.694 58.0271 182.544 57.7744C187.26 57.7444 191.976 57.7134 196.691 57.6816C197.63 57.6753 198.569 57.6691 199.536 57.6626C214.692 57.5584 229.845 57.3694 244.999 57.1483C260.575 56.9231 276.15 56.7904 291.727 56.7419C301.324 56.7091 310.914 56.6061 320.508 56.41C327.108 56.2821 333.705 56.245 340.306 56.276C344.104 56.2912 347.892 56.2697 351.688 56.1391C365.439 55.6891 377.165 56.1057 387.695 65.8329C392.327 70.3516 396.5 75.2412 400.614 80.2286C403.291 83.3379 406.14 85.9871 409.301 88.5909C412.185 90.9825 414.773 93.6684 417.398 96.3359C417.959 96.9008 418.521 97.4656 419.099 98.0475C420.86 99.8209 422.618 101.598 424.375 103.375C426.713 105.74 429.055 108.101 431.398 110.461C432.198 111.273 432.198 111.273 433.014 112.102C435.74 114.902 435.74 114.902 439 117C439.234 133.698 439.41 150.396 439.518 167.096C439.57 174.85 439.64 182.603 439.754 190.357C439.854 197.117 439.919 203.876 439.941 210.636C439.954 214.215 439.984 217.792 440.057 221.37C440.138 225.369 440.14 229.364 440.135 233.364C440.189 235.135 440.189 235.135 440.244 236.943C440.145 244.817 440.145 244.817 436.811 248.261C434.277 250.056 431.748 251.561 429 253C427.937 253.684 426.874 254.368 425.78 255.073C424.406 255.909 424.406 255.909 423.004 256.762C421.96 257.399 420.917 258.037 419.842 258.694C418.76 259.352 417.678 260.01 416.562 260.688C414.249 262.101 411.937 263.517 409.625 264.934C409.055 265.282 408.486 265.631 407.899 265.99C402.928 269.036 397.987 272.129 393.062 275.25C392.303 275.731 391.543 276.213 390.761 276.708C389.254 277.664 387.747 278.621 386.24 279.578C382.434 281.994 378.624 284.404 374.812 286.812C374.041 287.3 373.27 287.788 372.475 288.29C364.984 293.02 357.47 297.714 349.952 302.4C345.06 305.451 340.178 308.516 335.32 311.621C334.441 312.182 333.562 312.743 332.656 313.32C331.005 314.375 329.357 315.433 327.711 316.496C326.984 316.96 326.257 317.424 325.508 317.902C324.875 318.31 324.242 318.717 323.59 319.136C322 320 322 320 320 320C320 320.66 320 321.32 320 322C319.34 322 318.68 322 318 322C318.007 321.342 318.014 320.684 318.021 320.006C318.183 303.945 318.272 287.886 318.282 271.824C318.289 264.056 318.32 256.29 318.408 248.523C318.485 241.747 318.516 234.973 318.492 228.197C318.481 224.614 318.493 221.033 318.56 217.45C319.493 199.313 319.493 199.313 311.7 183.753C303.591 176.721 293.489 177.095 283.316 177.238C281.328 177.227 279.34 177.212 277.352 177.193C273.203 177.17 269.058 177.193 264.909 177.25C259.626 177.319 254.353 177.266 249.071 177.177C244.97 177.122 240.872 177.134 236.771 177.166C234.826 177.172 232.88 177.158 230.936 177.122C228.197 177.081 225.474 177.132 222.737 177.204C221.566 177.159 221.566 177.159 220.372 177.114C213.239 177.468 208.455 182.037 203.641 186.89C197.144 194.228 197.012 201.193 197.188 210.615C197.169 212.338 197.145 214.062 197.114 215.785C197.051 220.425 197.075 225.06 197.119 229.7C197.155 234.579 197.122 239.459 197.1 244.338C197.075 252.529 197.108 260.719 197.175 268.91C197.251 278.348 197.226 287.783 197.149 297.222C197.085 305.359 197.077 313.496 197.113 321.633C197.135 326.479 197.138 331.323 197.092 336.168C197.051 340.727 197.08 345.281 197.16 349.84C197.179 351.501 197.174 353.163 197.143 354.824C196.992 363.694 197.779 369.513 204.037 376.149C209.09 381.149 209.09 381.149 215 385C213.881 388.357 213.523 388.58 210.633 390.277C209.567 390.914 209.567 390.914 208.48 391.563C207.703 392.017 206.926 392.47 206.125 392.938C204.463 393.93 202.801 394.923 201.141 395.918C200.284 396.429 199.427 396.94 198.545 397.466C194.616 399.834 190.745 402.289 186.875 404.75C179.602 409.363 172.307 413.94 165 418.5C157.718 423.046 150.444 427.601 143.188 432.188C142.418 432.674 141.649 433.16 140.856 433.661C137.073 436.053 133.293 438.448 129.516 440.848C119.003 447.516 108.424 454.071 97.8064 460.569C91.5136 464.409 91.5136 464.409 85.3633 468.469C83 470 83 470 81 470C81 470.66 81 471.32 81 472C80.01 472 79.02 472 78 472C78.0053 471.239 78.0106 470.479 78.0161 469.695C78.3307 424.425 78.5703 379.155 78.7149 333.884C78.7324 328.425 78.7505 322.966 78.769 317.508C78.7727 316.421 78.7764 315.335 78.7802 314.215C78.8408 296.716 78.951 279.217 79.0801 261.718C79.2119 243.708 79.289 225.698 79.3172 207.687C79.3346 197.593 79.376 187.501 79.4802 177.408C81.1214 120.256 81.1214 120.256 65.377 65.9705C64.2628 63.5669 63.5819 61.5504 63 59Z" fill="#024487"/>
<path d="M526 291C540.127 290.661 554.251 290.442 568.382 290.355C574.946 290.311 581.505 290.231 588.067 290.064C594.416 289.904 600.759 289.844 607.11 289.85C609.517 289.836 611.924 289.787 614.329 289.7C626.729 289.278 636.078 290.029 645.822 298.299C653.661 305.902 659.07 313.093 659.49 324.221C659.471 326.763 659.357 329.289 659.234 331.828C659.217 333.641 659.208 335.454 659.206 337.268C659.182 341.026 659.092 344.775 658.948 348.531C658.766 353.327 658.708 358.114 658.693 362.914C658.676 366.64 658.614 370.364 658.538 374.089C658.502 375.857 658.475 377.626 658.457 379.394C658.23 394.758 658.23 394.758 653.032 400.14C649.539 403 649.539 403 647 403C647 403.66 647 404.32 647 405C646.34 405 645.68 405 645 405C645 405.66 645 406.32 645 407C643.25 408.727 643.25 408.727 641 410.625C640.257 411.257 639.515 411.888 638.75 412.539C638.173 413.021 637.595 413.503 637 414C639.78 416.875 642.606 419.529 645.692 422.075C652.931 428.286 658.203 433.535 659.036 443.356C659.229 446.829 659.235 450.28 659.203 453.758C659.229 455.637 659.258 457.516 659.29 459.394C659.339 463.314 659.331 467.229 659.285 471.148C659.244 475.128 659.285 479.092 659.408 483.069C660.586 521.577 660.586 521.577 649.879 534.16C635.147 547.954 609.802 544.327 591.25 543.722C588.689 543.63 586.128 543.537 583.566 543.442C577.071 543.225 570.574 543.131 564.076 543.025C551.38 542.802 538.69 542.449 526 542C526.353 541.024 526.707 540.047 527.071 539.041C531.151 527.044 531.716 515.975 531.647 503.388C531.654 501.272 531.663 499.156 531.674 497.04C531.696 491.344 531.688 485.648 531.672 479.952C531.659 473.962 531.671 467.973 531.679 461.984C531.688 451.932 531.676 441.881 531.652 431.829C531.625 420.24 531.633 408.652 531.661 397.063C531.684 387.076 531.687 377.088 531.674 367.1C531.666 361.151 531.665 355.203 531.681 349.254C531.696 343.661 531.686 338.068 531.657 332.475C531.65 330.433 531.652 328.391 531.663 326.35C531.724 314.099 530.491 304.431 526 293C526 292.34 526 291.68 526 291ZM574 338C573.401 340.42 573.401 340.42 573.482 343.072C573.47 344.08 573.457 345.088 573.444 346.126C573.452 347.209 573.46 348.291 573.469 349.406C573.465 350.523 573.461 351.64 573.457 352.791C573.454 355.151 573.462 357.511 573.479 359.872C573.5 363.487 573.479 367.1 573.453 370.715C573.456 373.008 573.461 375.301 573.469 377.594C573.461 378.676 573.453 379.758 573.444 380.874C573.457 381.882 573.469 382.889 573.482 383.928C573.486 384.813 573.489 385.698 573.492 386.61C574.171 389.803 575.462 391.006 578 393C580.645 393.386 582.865 393.539 585.504 393.496C586.583 393.498 586.583 393.498 587.685 393.501C589.202 393.499 590.719 393.487 592.236 393.467C594.559 393.438 596.879 393.446 599.201 393.459C600.677 393.453 602.153 393.444 603.629 393.434C604.323 393.437 605.017 393.439 605.731 393.442C609.436 393.393 609.436 393.393 612.682 391.797C614.453 389.382 614.38 387.823 614.388 384.842C614.398 383.791 614.407 382.739 614.417 381.656C614.411 380.522 614.405 379.388 614.398 378.219C614.403 376.471 614.403 376.471 614.407 374.688C614.409 372.224 614.404 369.759 614.391 367.294C614.375 363.515 614.391 359.737 614.41 355.957C614.408 353.565 614.404 351.173 614.398 348.781C614.405 347.647 614.411 346.512 614.417 345.344C614.407 344.292 614.398 343.241 614.388 342.158C614.385 340.769 614.385 340.769 614.381 339.353C614.176 336.954 614.176 336.954 612.682 335.203C609.934 333.238 606.885 333.553 603.629 333.566C602.91 333.561 602.191 333.556 601.451 333.551C599.932 333.544 598.413 333.545 596.894 333.554C594.574 333.562 592.256 333.534 589.936 333.502C588.458 333.5 586.981 333.501 585.504 333.504C584.466 333.487 584.466 333.487 583.408 333.47C578.744 333.537 576.881 334.377 574 338ZM574 440C573.399 442.543 573.399 442.543 573.482 445.348C573.47 446.416 573.457 447.483 573.444 448.584C573.452 449.732 573.46 450.88 573.469 452.063C573.465 453.246 573.461 454.429 573.457 455.649C573.454 458.15 573.462 460.652 573.479 463.153C573.5 466.986 573.479 470.816 573.453 474.648C573.456 477.078 573.461 479.508 573.469 481.938C573.461 483.086 573.453 484.233 573.444 485.416C573.457 486.484 573.469 487.552 573.482 488.652C573.486 489.591 573.489 490.529 573.492 491.496C574.157 494.773 575.388 495.969 578 498C580.645 498.386 582.865 498.539 585.504 498.496C586.583 498.498 586.583 498.498 587.685 498.501C589.202 498.499 590.719 498.487 592.236 498.467C594.559 498.438 596.879 498.446 599.201 498.459C600.677 498.453 602.153 498.444 603.629 498.434C604.323 498.437 605.017 498.439 605.731 498.443C609.432 498.392 609.432 498.392 612.682 496.808C614.477 494.346 614.381 492.706 614.388 489.674C614.398 488.586 614.407 487.498 614.417 486.377C614.411 485.202 614.405 484.027 614.398 482.816C614.403 481.006 614.403 481.006 614.407 479.159C614.409 476.604 614.404 474.049 614.391 471.495C614.375 467.582 614.391 463.669 614.41 459.756C614.408 457.276 614.404 454.796 614.398 452.316C614.405 451.143 614.411 449.97 614.417 448.762C614.407 447.671 614.398 446.58 614.388 445.455C614.385 444.017 614.385 444.017 614.381 442.549C613.93 439.531 613.143 438.154 611 436C608.401 435.593 606.228 435.438 603.629 435.469C602.551 435.463 602.551 435.463 601.451 435.457C599.932 435.454 598.413 435.462 596.894 435.479C594.574 435.5 592.256 435.479 589.936 435.453C588.458 435.456 586.981 435.461 585.504 435.469C584.812 435.461 584.12 435.453 583.408 435.444C578.752 435.534 576.866 436.37 574 440Z" fill="#024487"/>
<path d="M827 580C841.047 579.601 855.094 579.303 869.146 579.119C875.673 579.031 882.196 578.911 888.72 578.717C895.03 578.531 901.335 578.431 907.647 578.387C910.042 578.356 912.437 578.295 914.831 578.203C934.541 577.472 934.541 577.472 942.234 583.792C945.954 587.305 949.276 591.071 952.394 595.125C953.942 597.1 953.942 597.1 956.162 598.46C958 600 958 600 958.548 602.109C958.57 602.929 958.593 603.748 958.616 604.592C958.65 605.535 958.684 606.478 958.72 607.449C958.737 608.482 958.754 609.515 958.771 610.58C958.821 612.215 958.821 612.215 958.871 613.883C958.97 617.504 959.036 621.124 959.094 624.746C959.115 625.987 959.136 627.228 959.158 628.507C959.243 633.735 959.32 638.964 959.365 644.193C959.429 651.642 959.561 659.083 959.79 666.53C959.966 672.426 960.028 678.32 960.053 684.218C960.08 686.706 960.14 689.194 960.237 691.68C960.991 712.285 960.991 712.285 953.393 720.79C950.692 723.508 947.949 726.012 944.977 728.431C940.044 732.16 940.044 732.16 937.406 737.484C937.491 741.685 938.402 745.599 940.009 749.482C942.367 755.736 943.648 762.113 945.023 768.641C945.57 771.056 946.122 773.47 946.68 775.883C947.531 779.576 948.379 783.269 949.213 786.966C952.08 799.681 954.921 812.117 959.92 824.183C961 827 961 827 961 830C943.84 830 926.68 830 909 830C910 821 910 821 910.425 818.449C911.637 810.755 909.754 803.795 907.922 796.34C907.59 794.941 907.26 793.542 906.93 792.143C906.24 789.225 905.54 786.31 904.832 783.396C903.929 779.686 903.044 775.971 902.165 772.255C901.319 768.678 900.465 765.102 899.609 761.527C899.45 760.858 899.29 760.188 899.126 759.498C897.153 747.488 897.153 747.488 892 737C889.712 736.848 887.418 736.778 885.125 736.75C883.869 736.724 882.614 736.698 881.32 736.672C878.134 736.73 878.134 736.73 876.319 738.09C874.325 740.977 874.603 743.399 874.58 746.88C874.567 747.924 874.567 747.924 874.554 748.99C874.531 751.3 874.53 753.608 874.531 755.918C874.524 757.534 874.516 759.151 874.508 760.767C874.495 764.166 874.493 767.565 874.499 770.964C874.505 775.275 874.475 779.585 874.434 783.896C874.408 787.243 874.405 790.59 874.409 793.937C874.407 795.523 874.398 797.109 874.38 798.695C874.357 800.944 874.367 803.19 874.385 805.438C874.383 806.708 874.381 807.978 874.379 809.287C875.314 816.38 877.866 823.171 880 830C862.51 830 845.02 830 827 830C829 821 829 821 830.108 818C831.311 813.955 831.283 810.204 831.267 806.007C831.272 805.112 831.276 804.217 831.281 803.295C831.294 800.301 831.292 797.308 831.291 794.314C831.297 792.165 831.303 790.016 831.311 787.867C831.329 782.032 831.333 776.197 831.335 770.362C831.336 766.714 831.34 763.066 831.346 759.418C831.364 746.683 831.372 733.948 831.371 721.212C831.369 709.355 831.39 697.498 831.422 685.641C831.448 675.451 831.459 665.262 831.458 655.072C831.457 648.991 831.463 642.91 831.484 636.828C831.503 631.104 831.504 625.38 831.489 619.656C831.487 617.561 831.492 615.467 831.504 613.372C831.637 598.972 831.637 598.972 827.858 585.163C827 583 827 583 827 580ZM876.08 624.684C872.717 630.046 873.308 635.492 873.371 641.691C873.37 643.042 873.368 644.393 873.364 645.744C873.361 648.57 873.376 651.394 873.403 654.219C873.437 657.837 873.431 661.453 873.412 665.07C873.402 667.858 873.411 670.645 873.426 673.432C873.433 675.413 873.426 677.394 873.419 679.375C873.434 680.579 873.45 681.784 873.467 683.026C873.473 684.085 873.479 685.145 873.485 686.237C874.13 689.7 875.224 690.888 878 693C880.633 693.398 882.84 693.562 885.469 693.531C886.186 693.535 886.903 693.539 887.642 693.543C889.155 693.546 890.668 693.538 892.181 693.521C894.493 693.5 896.802 693.521 899.113 693.547C900.586 693.544 902.059 693.539 903.531 693.531C904.22 693.539 904.909 693.547 905.618 693.556C908.768 693.494 910.641 693.272 913.181 691.348C915.504 688.349 915.506 686.685 915.518 682.918C915.53 681.69 915.543 680.462 915.556 679.197C915.549 677.86 915.54 676.524 915.531 675.187C915.534 673.813 915.538 672.438 915.543 671.063C915.549 668.185 915.54 665.307 915.521 662.429C915.499 658.743 915.512 655.058 915.536 651.373C915.55 648.535 915.546 645.697 915.535 642.859C915.533 641.5 915.536 640.141 915.545 638.783C915.555 636.883 915.537 634.982 915.518 633.082C915.514 632.002 915.511 630.921 915.508 629.808C914.875 626.311 913.8 625.129 911 623C907.605 622.368 907.605 622.368 903.785 622.434C903.092 622.427 902.4 622.421 901.686 622.415C900.224 622.408 898.763 622.411 897.301 622.424C895.072 622.437 892.848 622.403 890.619 622.365C889.195 622.364 887.771 622.366 886.348 622.371C885.059 622.37 883.77 622.37 882.442 622.369C878.953 622.81 878.953 622.81 876.08 624.684Z" fill="#1A2D56"/>
<path d="M876.13 291.435C876.947 291.423 877.763 291.411 878.605 291.399C881.305 291.366 884.003 291.363 886.703 291.363C888.584 291.353 890.465 291.342 892.346 291.33C896.29 291.311 900.234 291.307 904.178 291.314C909.22 291.32 914.261 291.276 919.302 291.218C923.189 291.181 927.075 291.176 930.961 291.18C932.819 291.177 934.677 291.163 936.535 291.138C952.871 290.936 952.871 290.936 958.202 295.427C961 298.471 961 298.471 961 301C961.845 301.396 961.845 301.396 962.706 301.8C967.722 304.424 971.15 307 974 312C975.579 319.448 974.99 327.311 974.812 334.875C974.751 338.977 974.716 343.078 974.707 347.18C974.703 348.15 974.699 349.12 974.695 350.12C974.752 356.301 975.441 361.454 978.132 367.114C979 369 979 369 979 372C961.51 372 944.02 372 926 372C927.074 364.481 927.074 364.481 928.562 360.562C930.035 355.861 930.331 351.45 930.375 346.562C930.389 345.864 930.402 345.165 930.416 344.446C930.388 340.693 930.388 340.693 928.94 337.308C925.989 335.319 922.995 335.592 919.559 335.637C918.835 335.636 918.112 335.636 917.366 335.635C915.839 335.638 914.312 335.647 912.784 335.664C910.443 335.687 908.102 335.684 905.76 335.678C904.276 335.683 902.792 335.69 901.309 335.699C900.606 335.698 899.904 335.697 899.181 335.696C895.142 335.647 895.142 335.647 892 338C891.694 340.371 891.694 340.371 891.741 343.152C891.735 344.227 891.729 345.301 891.722 346.408C891.726 347.573 891.73 348.738 891.734 349.938C891.732 351.129 891.731 352.32 891.729 353.547C891.727 356.069 891.731 358.59 891.739 361.112C891.75 364.984 891.739 368.855 891.727 372.727C891.728 375.172 891.73 377.617 891.734 380.062C891.73 381.227 891.726 382.392 891.722 383.592C891.728 384.666 891.735 385.741 891.741 386.848C891.743 387.796 891.744 388.745 891.746 389.723C891.782 392.198 891.782 392.198 894 394C896.444 394.186 896.444 394.186 899.31 393.986C900.423 393.938 901.536 393.89 902.683 393.84C904.505 393.759 904.505 393.759 906.363 393.676C909.627 393.597 912.89 393.529 916.154 393.467C919.547 393.397 922.93 393.29 926.318 393.098C940.555 392.373 953.937 392.672 965.254 402.324C978.558 415.956 977.015 436.352 976.871 454.145C976.83 456.527 976.786 458.909 976.738 461.292C976.618 467.299 976.689 473.287 976.81 479.294C977.55 522.184 977.55 522.184 965.996 534.652C951.863 546.959 930.801 544.763 913.318 544.141C909.462 544.036 905.611 544.054 901.754 544.074C898.003 544.082 894.255 544.029 890.504 543.956C888.731 543.926 886.957 543.91 885.183 543.911C876.816 543.87 869.992 543.737 863.661 537.775C861.306 535.285 859.167 532.656 857 530C855.49 528.591 853.955 527.206 852.375 525.875C847.049 521.358 847.049 521.358 846.742 519.118C846.737 518.354 846.733 517.589 846.729 516.801C846.713 515.498 846.713 515.498 846.698 514.169C846.696 513.226 846.694 512.284 846.691 511.312C846.666 509.314 846.641 507.315 846.615 505.316C846.587 502.168 846.563 499.019 846.544 495.871C846.522 492.83 846.482 489.79 846.441 486.75C846.441 485.824 846.441 484.897 846.441 483.943C846.357 478.295 845.508 473.539 843.641 468.2C843 466 843 466 843 462C860.49 462 877.98 462 896 462C895.01 465.3 894.02 468.6 893 472C891.842 476.633 891.779 480.814 891.75 485.562C891.729 486.426 891.709 487.289 891.688 488.178C891.682 489.007 891.677 489.837 891.672 490.691C891.663 491.446 891.653 492.201 891.644 492.979C891.878 495.047 891.878 495.047 893.087 496.742C895.993 498.653 898.485 498.407 901.934 498.434C902.608 498.439 903.282 498.444 903.977 498.449C905.402 498.456 906.827 498.455 908.251 498.446C910.427 498.438 912.6 498.466 914.775 498.498C916.161 498.5 917.548 498.499 918.934 498.496C920.822 498.499 920.822 498.499 922.748 498.502C926.653 497.899 927.581 497.05 930 494C930.574 491.468 930.574 491.468 930.454 488.681C930.454 487.089 930.454 487.089 930.453 485.466C930.433 484.327 930.412 483.189 930.391 482.016C930.382 480.26 930.382 480.26 930.373 478.468C930.351 474.728 930.301 470.989 930.25 467.25C930.23 464.715 930.212 462.18 930.195 459.645C930.151 453.429 930.084 447.215 930 441C926.69 439.004 924.385 438.814 920.555 439.014C919.462 439.062 918.369 439.11 917.242 439.16C916.06 439.214 914.878 439.268 913.66 439.324C911.126 439.387 908.591 439.443 906.057 439.494C902.076 439.575 898.12 439.684 894.145 439.902C880.061 440.635 866.967 440.207 855.77 430.695C843.08 417.756 844.228 399.146 844.283 382.152C844.339 377.373 844.455 372.595 844.567 367.817C844.644 362.975 844.58 358.139 844.516 353.297C844.47 348.59 844.507 343.886 844.569 339.179C844.591 336.952 844.588 334.723 844.561 332.495C844.418 314.404 844.418 314.404 850.804 307.109C854.347 303.571 858.126 300.425 862.147 297.444C864.158 295.977 864.158 295.977 866.029 293.613C869.09 291.108 872.348 291.418 876.13 291.435Z" fill="#024487"/>
<path d="M722 291C741.14 291 760.28 291 780 291C779.01 294.96 778.02 298.92 777 303C776.065 308.607 776.384 311.94 777.746 317.223C777.948 318.047 778.15 318.87 778.358 319.719C778.804 321.535 779.255 323.35 779.71 325.164C780.997 330.292 782.243 335.43 783.496 340.566C783.772 341.692 784.047 342.818 784.331 343.978C787.664 357.631 790.81 371.327 793.967 385.021C795.686 392.476 797.41 399.93 799.137 407.383C799.388 408.467 799.388 408.467 799.644 409.573C803.062 424.322 806.566 439.05 810.111 453.769C812.447 463.471 814.751 473.179 817.012 482.898C817.263 483.977 817.514 485.055 817.772 486.166C818.981 491.361 820.187 496.558 821.386 501.755C821.82 503.623 822.254 505.491 822.688 507.359C822.878 508.19 823.068 509.02 823.264 509.875C825.17 518.054 827.19 526.005 831.188 533.438C834 538.686 834 538.686 834 542C816.51 542 799.02 542 781 542C781.66 539.03 782.32 536.06 783 533C783.304 524.677 780.612 516.144 778.688 508.125C778.388 506.807 778.09 505.49 777.791 504.172C777.493 502.921 777.194 501.671 776.887 500.383C776.621 499.252 776.355 498.122 776.081 496.958C774.82 493.508 774.073 492.038 771 490C767.911 489.432 764.88 489.463 761.746 489.504C760.849 489.502 759.952 489.501 759.027 489.499C757.133 489.501 755.24 489.513 753.346 489.533C750.444 489.562 747.544 489.554 744.643 489.541C742.802 489.547 740.962 489.556 739.121 489.566C738.252 489.563 737.384 489.561 736.488 489.558C735.277 489.577 735.277 489.577 734.041 489.596C733.331 489.601 732.622 489.607 731.89 489.612C729.445 490.114 728.556 491.089 727 493C726.211 494.839 726.211 494.839 725.754 496.887C725.558 497.653 725.362 498.419 725.161 499.208C724.865 500.435 724.865 500.435 724.562 501.688C724.352 502.53 724.142 503.373 723.925 504.241C723.492 505.979 723.062 507.717 722.636 509.457C722.041 511.837 721.407 514.202 720.754 516.566C720.563 517.274 720.372 517.981 720.176 518.71C719.656 520.636 719.129 522.56 718.602 524.484C717.508 530.874 719.222 535.778 721 542C703.18 542 685.36 542 667 542C667.985 538.062 669.383 535.224 671.234 531.629C675.984 521.849 678.004 511.513 680.25 500.938C681.082 497.112 681.923 493.288 682.766 489.465C682.996 488.414 683.226 487.364 683.463 486.281C685.88 475.345 688.499 464.46 691.117 453.57C695.119 436.925 699.06 420.267 702.93 403.59C703.175 402.535 703.419 401.48 703.672 400.393C705.158 393.987 706.642 387.58 708.126 381.173C710.133 372.504 712.143 363.836 714.154 355.167C714.839 352.209 715.524 349.251 716.209 346.293C716.423 345.369 716.638 344.444 716.859 343.491C717.279 341.677 717.698 339.863 718.115 338.049C719.184 333.421 720.294 328.807 721.466 324.204C721.703 323.257 721.94 322.31 722.185 321.334C722.636 319.539 723.098 317.747 723.571 315.957C725.119 309.755 725.026 305.017 722.938 298.875C722 296 722 296 722 291ZM750 367C749.86 367.73 749.72 368.459 749.576 369.211C748.886 372.808 748.193 376.404 747.5 380C747.371 380.671 747.242 381.342 747.109 382.034C745.389 390.961 743.628 399.879 741.82 408.789C741.638 409.691 741.455 410.592 741.267 411.521C739.802 418.764 739.802 418.764 739.077 422.293C738.56 424.812 738.049 427.331 737.539 429.852C737.383 430.602 737.227 431.353 737.066 432.127C735.417 438.663 735.417 438.663 737.16 444.788C739.671 446.442 741.443 446.388 744.438 446.398C745.497 446.402 746.557 446.406 747.648 446.41C748.754 446.399 749.86 446.387 751 446.375C752.106 446.387 753.212 446.398 754.352 446.41C755.411 446.406 756.471 446.402 757.562 446.398C758.533 446.395 759.504 446.392 760.504 446.388C762.991 446.185 762.991 446.185 764.696 444.839C766.262 443.016 766.262 443.016 765.952 440.357C765.757 439.312 765.561 438.266 765.359 437.19C765.149 436.024 764.938 434.859 764.721 433.658C764.483 432.451 764.245 431.244 764 430C763.682 428.311 763.682 428.311 763.357 426.587C762.678 423.041 761.968 419.503 761.25 415.965C760.991 414.683 760.732 413.401 760.466 412.081C759.923 409.397 759.378 406.714 758.832 404.031C758.133 400.6 757.443 397.167 756.754 393.733C756.091 390.434 755.42 387.137 754.75 383.84C754.504 382.611 754.258 381.382 754.005 380.115C753.771 378.976 753.538 377.837 753.297 376.664C753.094 375.664 752.891 374.664 752.683 373.633C752.047 371.183 751.23 369.203 750 367Z" fill="#024487"/>
<path d="M700 580C719.14 580 738.28 580 758 580C757.01 583.63 756.02 587.26 755 591C753.707 596.149 754.443 600.168 755.746 605.223C755.948 606.047 756.15 606.87 756.358 607.719C756.804 609.535 757.255 611.35 757.71 613.164C758.997 618.292 760.243 623.43 761.496 628.566C761.772 629.692 762.047 630.818 762.331 631.978C765.664 645.631 768.81 659.327 771.967 673.021C773.686 680.476 775.41 687.93 777.137 695.383C777.388 696.467 777.388 696.467 777.644 697.573C781.062 712.322 784.566 727.05 788.111 741.769C790.447 751.471 792.751 761.179 795.012 770.898C795.263 771.977 795.514 773.055 795.772 774.166C796.981 779.361 798.187 784.558 799.386 789.755C799.82 791.623 800.254 793.491 800.688 795.359C800.878 796.19 801.068 797.02 801.264 797.875C803.17 806.054 805.19 814.005 809.188 821.438C812 826.686 812 826.686 812 830C794.51 830 777.02 830 759 830C759.583 827.087 760.175 824.175 760.793 821.27C761.515 814.391 759.497 807.652 757.877 801.014C757.311 798.68 756.776 796.34 756.244 793.998C755.89 792.502 755.534 791.007 755.176 789.512C755.018 788.817 754.861 788.122 754.699 787.406C753.645 783.2 752.712 780.373 749 778C745.909 777.439 742.88 777.463 739.746 777.504C738.849 777.502 737.952 777.501 737.027 777.499C735.133 777.501 733.24 777.513 731.346 777.533C728.444 777.562 725.544 777.554 722.643 777.541C720.802 777.547 718.962 777.556 717.121 777.566C716.252 777.563 715.384 777.561 714.488 777.558C713.277 777.577 713.277 777.577 712.041 777.596C711.331 777.601 710.622 777.607 709.89 777.612C707.423 778.118 706.548 779.046 705 781C703.977 783.851 703.977 783.851 703.246 787.137C702.949 788.354 702.652 789.572 702.346 790.826C702.046 792.1 701.746 793.375 701.438 794.688C701.134 795.942 700.83 797.197 700.518 798.49C699.931 800.917 699.35 803.346 698.774 805.775C698.137 808.428 697.465 811.065 696.77 813.703C695.373 819.687 697.312 824.091 699 830C681.18 830 663.36 830 645 830C646.45 825.651 647.743 822.464 649.889 818.556C653.39 811.649 655.122 804.631 656.777 797.109C657.107 795.666 657.438 794.224 657.771 792.782C658.475 789.711 659.171 786.638 659.859 783.563C660.956 778.657 662.075 773.755 663.198 768.854C664.546 762.961 665.89 757.067 667.228 751.171C670.266 737.788 673.393 724.427 676.539 711.068C677.439 707.244 678.334 703.419 679.228 699.593C682.142 687.128 685.074 674.667 688.051 662.217C689.752 655.1 691.445 647.982 693.132 640.862C694.361 635.677 695.602 630.496 696.852 625.316C697.626 622.097 698.388 618.875 699.147 615.653C699.503 614.154 699.863 612.655 700.229 611.158C702.711 600.975 703.427 594.053 700 584C700 582.68 700 581.36 700 580ZM728 657C726.317 665.301 724.638 673.603 722.967 681.907C722.19 685.763 721.412 689.619 720.63 693.475C719.873 697.202 719.122 700.93 718.373 704.659C718.088 706.075 717.802 707.49 717.513 708.905C714.83 720.359 714.83 720.359 714 732C716.641 734.641 717.878 734.257 721.559 734.266C722.667 734.268 723.774 734.271 724.916 734.273C726.078 734.266 727.24 734.258 728.438 734.25C729.596 734.258 730.754 734.265 731.947 734.273C733.611 734.27 733.611 734.27 735.309 734.266C736.328 734.263 737.346 734.261 738.396 734.259C741.235 734.182 741.235 734.182 744 732C743.268 723.869 741.721 715.934 740.129 707.938C739.844 706.495 739.558 705.053 739.273 703.611C738.678 700.609 738.08 697.607 737.48 694.605C736.711 690.752 735.953 686.897 735.197 683.041C734.614 680.071 734.023 677.104 733.429 674.136C733.146 672.714 732.866 671.292 732.588 669.868C732.202 667.89 731.804 665.914 731.405 663.938C731.181 662.812 730.958 661.687 730.727 660.527C730.367 659.276 730.367 659.276 730 658C729.34 657.67 728.68 657.34 728 657Z" fill="#1A2D56"/>
<path d="M1023 580C1042.14 580 1061.28 580 1081 580C1080.01 583.63 1079.02 587.26 1078 591C1077.11 595.447 1076.93 596.875 1077.91 600.978C1078.13 601.952 1078.36 602.927 1078.59 603.93C1078.97 605.51 1078.97 605.51 1079.36 607.121C1079.75 608.785 1079.75 608.785 1080.15 610.483C1081 614.137 1081.88 617.787 1082.75 621.438C1083.36 624.001 1083.96 626.566 1084.56 629.13C1086.36 636.757 1088.18 644.379 1090 652C1090.48 654.016 1090.96 656.033 1091.44 658.049C1093.16 665.269 1094.89 672.487 1096.62 679.703C1100.27 694.883 1103.86 710.076 1107.43 725.273C1108.47 729.699 1109.52 734.123 1110.56 738.548C1113.84 752.455 1117.1 766.365 1120.22 780.309C1120.95 783.504 1121.67 786.699 1122.39 789.895C1123.04 792.765 1123.66 795.64 1124.29 798.515C1126.38 807.864 1128.96 815.967 1133.64 824.352C1135 827 1135 827 1135 830C1117.51 830 1100.02 830 1082 830C1082.66 827.69 1083.32 825.38 1084 823C1084.32 817.447 1083.71 812.549 1082.39 807.141C1082.22 806.429 1082.05 805.717 1081.88 804.984C1081.53 803.494 1081.17 802.005 1080.8 800.517C1080.25 798.246 1079.72 795.969 1079.2 793.691C1078.85 792.237 1078.49 790.782 1078.14 789.328C1077.99 788.652 1077.83 787.976 1077.67 787.279C1076.62 783.119 1075.66 780.362 1072 778C1068.98 777.461 1066.03 777.511 1062.96 777.574C1062.09 777.578 1061.21 777.581 1060.31 777.584C1058.47 777.595 1056.62 777.615 1054.77 777.643C1051.94 777.687 1049.12 777.705 1046.29 777.717C1044.49 777.73 1042.7 777.745 1040.9 777.762C1040.06 777.769 1039.21 777.776 1038.34 777.784C1034.99 777.839 1032.2 777.935 1029 779C1029 779.66 1029 780.32 1029 781C1028.34 781 1027.68 781 1027 781C1026.91 782.029 1026.82 783.057 1026.73 784.117C1025.76 791.862 1023.38 799.392 1021.35 806.91C1020.88 808.722 1020.88 808.722 1020.4 810.57C1020.11 811.661 1019.81 812.752 1019.51 813.875C1018.55 819.723 1020.37 824.297 1022 830C1004.18 830 986.36 830 968 830C969.452 825.644 970.566 822.903 972.77 819.117C977.178 810.419 978.887 800.983 980.95 791.511C981.966 786.844 983.017 782.186 984.066 777.526C984.604 775.131 985.14 772.736 985.674 770.34C987.883 760.452 990.214 750.597 992.599 740.75C996.093 726.318 999.509 711.868 1002.86 697.402C1003.03 696.676 1003.2 695.95 1003.37 695.201C1005.1 687.73 1006.83 680.257 1008.55 672.784C1011.78 658.737 1015.04 644.7 1018.5 630.707C1018.77 629.629 1019.03 628.551 1019.31 627.44C1020.52 622.53 1021.74 617.625 1022.99 612.727C1026.09 600.366 1025.84 592.801 1023 580ZM1051 658C1049.17 666.909 1047.34 675.819 1045.52 684.73C1044.68 688.868 1043.83 693.006 1042.98 697.143C1042.16 701.136 1041.34 705.13 1040.53 709.125C1040.22 710.648 1039.91 712.171 1039.59 713.693C1039.15 715.827 1038.72 717.963 1038.29 720.098C1038.04 721.313 1037.79 722.528 1037.53 723.779C1037.06 726.631 1036.73 729.124 1037 732C1039.64 734.641 1040.88 734.257 1044.56 734.266C1045.67 734.268 1046.77 734.271 1047.92 734.273C1049.08 734.266 1050.24 734.258 1051.44 734.25C1052.6 734.258 1053.75 734.265 1054.95 734.273C1056.61 734.27 1056.61 734.27 1058.31 734.266C1059.33 734.263 1060.35 734.261 1061.4 734.259C1064.24 734.182 1064.24 734.182 1067 732C1066.28 723.849 1064.68 715.911 1063.06 707.902C1062.77 706.458 1062.48 705.014 1062.19 703.569C1061.43 699.795 1060.67 696.023 1059.91 692.25C1059.12 688.39 1058.35 684.528 1057.57 680.666C1056.05 673.11 1054.53 665.555 1053 658C1052.34 658 1051.68 658 1051 658Z" fill="#1A2D56"/>
<path d="M526 580C540.386 579.883 554.772 579.795 569.159 579.741C575.839 579.715 582.519 579.679 589.198 579.623C595.643 579.569 602.088 579.539 608.533 579.526C610.994 579.516 613.454 579.498 615.915 579.471C619.358 579.435 622.8 579.43 626.243 579.432C627.263 579.414 628.283 579.396 629.334 579.378C636.284 579.429 636.284 579.429 639.693 582.149C640.835 583.56 640.835 583.56 642 585C643.214 585.972 644.447 586.921 645.693 587.851C653.106 593.827 657.695 599.106 658.819 608.788C659.178 614.578 659.214 620.338 659.168 626.137C659.191 628.668 659.217 631.2 659.247 633.731C659.292 639.019 659.281 644.305 659.23 649.594C659.173 655.653 659.243 661.702 659.377 667.761C659.503 673.653 659.514 679.54 659.482 685.433C659.481 687.91 659.51 690.386 659.573 692.861C659.849 705.559 659.042 715.024 650.42 724.869C643.193 732.163 636.468 738.261 625.816 738.341C624.638 738.251 623.46 738.16 622.246 738.066C620.972 738.053 619.698 738.04 618.385 738.026C615.066 737.977 611.766 737.843 608.451 737.662C603.741 737.429 599.023 737.372 594.308 737.281C591.812 737.222 589.316 737.137 586.822 737.021C585.706 736.976 584.589 736.931 583.439 736.885C582.458 736.836 581.477 736.787 580.466 736.736C578.007 736.828 578.007 736.828 576.185 738.068C574.368 741.031 574.61 743.582 574.596 747.035C574.586 748.104 574.586 748.104 574.575 749.195C574.557 751.556 574.561 753.916 574.566 756.277C574.562 757.926 574.557 759.574 574.551 761.223C574.542 764.686 574.544 768.148 574.554 771.611C574.565 776.019 574.545 780.426 574.516 784.834C574.498 788.244 574.498 791.654 574.504 795.065C574.504 796.688 574.498 798.31 574.485 799.933C574.427 808.702 574.845 816.415 578.142 824.696C579 827 579 827 579 830C561.51 830 544.02 830 526 830C527.65 824.72 529.3 819.44 531 814C531.419 810.464 531.684 807.445 531.635 803.952C531.647 802.62 531.647 802.62 531.659 801.262C531.678 798.352 531.663 795.443 531.647 792.533C531.654 790.421 531.663 788.308 531.674 786.195C531.696 780.503 531.688 774.811 531.672 769.119C531.659 763.133 531.671 757.147 531.679 751.162C531.688 741.112 531.676 731.064 531.652 721.014C531.625 709.434 531.633 697.855 531.661 686.274C531.684 676.293 531.687 666.311 531.674 656.329C531.666 650.385 531.665 644.44 531.681 638.496C531.696 632.903 531.686 627.312 531.657 621.719C531.65 619.68 531.652 617.641 531.663 615.602C531.726 602.871 530.344 592.004 526 580ZM574 627C573.396 629.917 573.396 629.917 573.482 633.19C573.47 634.441 573.457 635.692 573.444 636.982C573.451 638.343 573.46 639.705 573.469 641.066C573.466 642.466 573.462 643.866 573.457 645.265C573.451 648.195 573.46 651.124 573.479 654.053C573.501 657.809 573.488 661.563 573.464 665.318C573.45 668.207 573.454 671.095 573.465 673.984C573.467 675.368 573.464 676.753 573.455 678.138C573.445 680.072 573.463 682.006 573.482 683.94C573.486 685.04 573.489 686.141 573.492 687.274C573.755 690.097 573.755 690.097 575.824 691.855C579 693.526 581.678 693.389 585.25 693.398C585.945 693.401 586.64 693.404 587.356 693.407C588.822 693.409 590.288 693.404 591.754 693.391C593.993 693.375 596.23 693.391 598.469 693.41C599.896 693.408 601.323 693.404 602.75 693.398C604.044 693.395 605.338 693.392 606.672 693.388C610.304 692.965 611.474 692.568 614 690C614.608 687.19 614.608 687.19 614.518 683.94C614.53 682.692 614.543 681.443 614.556 680.157C614.549 678.794 614.54 677.43 614.531 676.066C614.534 674.668 614.538 673.269 614.543 671.871C614.549 668.939 614.54 666.008 614.521 663.077C614.499 659.323 614.512 655.57 614.536 651.816C614.55 648.927 614.546 646.039 614.535 643.15C614.533 641.766 614.536 640.382 614.545 638.999C614.555 637.062 614.537 635.126 614.518 633.19C614.514 632.088 614.511 630.987 614.508 629.853C613.88 626.324 612.83 625.141 610 623C606.587 622.384 606.587 622.384 602.75 622.469C601.707 622.463 601.707 622.463 600.644 622.457C599.178 622.454 597.712 622.462 596.246 622.479C594.007 622.5 591.771 622.479 589.531 622.453C588.104 622.456 586.677 622.461 585.25 622.469C583.309 622.476 583.309 622.476 581.328 622.482C577.354 623.1 576.429 623.865 574 627Z" fill="#1A2D56"/>
<path d="M995 291C1052.92 291.495 1052.92 291.495 1112 292C1118 326 1118 326 1119 339C1116.97 338.355 1114.94 337.711 1112.84 337.047C1100.08 333.564 1086.62 334.32 1073.5 334.25C1070.83 334.224 1068.15 334.192 1065.48 334.16C1058.99 334.087 1052.49 334.035 1046 334C1046 334.66 1046 335.32 1046 336C1045.34 336 1044.68 336 1044 336C1043.92 343.635 1043.87 351.271 1043.84 358.906C1043.82 361.505 1043.8 364.104 1043.77 366.702C1043.74 370.433 1043.72 374.164 1043.71 377.895C1043.69 379.06 1043.68 380.226 1043.66 381.427C1043.66 383.048 1043.66 383.048 1043.66 384.702C1043.65 385.655 1043.65 386.608 1043.64 387.589C1044.06 390.428 1044.72 391.306 1047 393C1050.21 393.664 1053.48 393.521 1056.75 393.5C1058.15 393.499 1058.15 393.499 1059.59 393.498C1068.2 393.315 1075.05 391.175 1083 388C1083.66 388 1084.32 388 1085 388C1085 405.82 1085 423.64 1085 442C1076 440 1076 440 1073.2 438.891C1068.1 437.473 1063.02 437.712 1057.75 437.75C1056.65 437.742 1055.55 437.735 1054.41 437.727C1053.36 437.729 1052.32 437.732 1051.23 437.734C1050.28 437.737 1049.32 437.739 1048.33 437.741C1045.81 437.775 1045.81 437.775 1044 440C1043.69 442.412 1043.69 442.412 1043.74 445.244C1043.73 446.339 1043.73 447.433 1043.72 448.561C1043.73 449.747 1043.73 450.934 1043.73 452.156C1043.73 453.369 1043.73 454.583 1043.73 455.833C1043.73 458.402 1043.73 460.971 1043.74 463.54C1043.75 467.484 1043.74 471.427 1043.73 475.371C1043.73 477.862 1043.73 480.353 1043.73 482.844C1043.73 484.03 1043.73 485.217 1043.72 486.439C1043.73 487.534 1043.73 488.628 1043.74 489.756C1043.74 490.722 1043.74 491.689 1043.75 492.685C1043.78 495.194 1043.78 495.194 1046 497C1048.82 497.322 1048.82 497.322 1052.17 497.291C1053.47 497.303 1054.77 497.316 1056.11 497.329C1057.54 497.332 1058.97 497.334 1060.39 497.336C1061.86 497.342 1063.33 497.349 1064.8 497.356C1067.89 497.368 1070.97 497.372 1074.06 497.371C1077.98 497.37 1081.91 497.398 1085.83 497.432C1088.87 497.455 1091.91 497.458 1094.95 497.457C1096.39 497.46 1097.84 497.468 1099.28 497.484C1107.86 497.568 1115.36 496.738 1123.52 493.859C1126 493 1126 493 1128 493C1126.73 509.451 1123.71 525.725 1121 542C1079.42 542 1037.84 542 995 542C997 533 997 533 998.108 530.002C999.313 525.946 999.283 522.178 999.267 517.969C999.272 517.07 999.276 516.171 999.281 515.245C999.294 512.237 999.292 509.23 999.291 506.222C999.297 504.063 999.303 501.905 999.311 499.746C999.329 493.884 999.333 488.022 999.335 482.16C999.336 478.496 999.34 474.831 999.346 471.166C999.364 458.372 999.372 445.579 999.371 432.785C999.369 420.873 999.39 408.962 999.422 397.05C999.448 386.814 999.459 376.578 999.458 366.341C999.457 360.232 999.463 354.123 999.484 348.014C999.503 342.263 999.504 336.513 999.489 330.762C999.487 328.658 999.492 326.554 999.504 324.45C999.643 310.008 999.643 310.008 995.858 296.16C995 294 995 294 995 291Z" fill="#024487"/>
<path d="M820 957C823.96 957 827.92 957 832 957C832 963.27 832 969.54 832 976C836.62 975.67 841.24 975.34 846 975C845.206 974.301 844.412 973.603 843.594 972.883C842.562 971.964 841.531 971.045 840.5 970.125C839.975 969.665 839.451 969.205 838.91 968.73C837.569 967.528 836.28 966.268 835 965C835 964.34 835 963.68 835 963C840.476 958 840.476 958 843 958C843 958.66 843 959.32 843 960C843.572 960.255 844.145 960.51 844.734 960.773C847.242 962.131 849.133 963.72 851.25 965.625C851.956 966.257 852.663 966.888 853.391 967.539C854.187 968.262 854.187 968.262 855 969C854.427 971.867 854.139 972.861 852 975C854.64 975.33 857.28 975.66 860 976C860 979.63 860 983.26 860 987C850.76 987 841.52 987 832 987C832.454 989.723 832.907 992.445 833.375 995.25C833.513 996.101 833.652 996.952 833.794 997.829C834.428 1001.52 834.999 1004.76 837 1008C838.462 1005.92 839.919 1003.84 841.375 1001.75C841.787 1001.16 842.2 1000.58 842.625 999.973C844.647 997.07 846.545 994.231 848 991C852.194 991.671 855.403 993.856 859 996C857.23 1000.17 854.418 1003.49 851.625 1007C851.143 1007.62 850.661 1008.23 850.164 1008.87C848.074 1011.51 846.161 1013.86 843.586 1016.06C841.686 1017.96 841.686 1017.96 842.039 1020.92C844.931 1030.19 852.341 1036.56 859.875 1042.22C860.576 1042.81 861.277 1043.4 862 1044C862 1046 862 1046 859.562 1048.5C858.717 1049.32 857.871 1050.15 857 1051C856.67 1051.66 856.34 1052.32 856 1053C848.88 1051.89 843.408 1045.05 839.348 1039.51C837.152 1036.39 835.056 1033.21 833 1030C832.985 1030.67 832.971 1031.34 832.956 1032.03C832.881 1035.08 832.785 1038.14 832.688 1041.19C832.665 1042.24 832.642 1043.3 832.619 1044.38C832.566 1045.92 832.566 1045.92 832.512 1047.48C832.486 1048.42 832.459 1049.36 832.432 1050.32C831.779 1054.37 830.065 1057.07 827 1059.75C822.955 1062.28 819.474 1062.11 814.812 1062.06C813.54 1062.05 812.268 1062.04 810.957 1062.04C809.981 1062.02 809.005 1062.01 808 1062C807.494 1060.56 806.996 1059.13 806.5 1057.69C806.222 1056.89 805.943 1056.09 805.656 1055.26C805 1053 805 1053 805 1050C809.95 1050 814.9 1050 820 1050C819.505 1039.6 819.505 1039.6 819 1029C817.03 1031.02 817.03 1031.02 815.02 1033.09C813.284 1034.85 811.549 1036.61 809.812 1038.38C808.948 1039.26 808.084 1040.15 807.193 1041.07C806.352 1041.92 805.511 1042.77 804.645 1043.65C803.875 1044.43 803.105 1045.22 802.312 1046.03C799.943 1048.05 797.938 1049.03 795 1050C793.02 1047.36 791.04 1044.72 789 1042C781.034 1044.08 773.205 1046.48 765.376 1049.02C764.58 1049.27 763.785 1049.53 762.965 1049.79C762.249 1050.03 761.534 1050.26 760.797 1050.5C759 1051 759 1051 757 1051C756.34 1047.04 755.68 1043.08 755 1039C764.5 1036 764.5 1036 769 1036C769 1026.43 769 1016.86 769 1007C765.04 1007 761.08 1007 757 1007C757 1003.37 757 999.74 757 996C760.63 996 764.26 996 768 996C768 989.4 768 982.8 768 976C765.308 976.031 765.308 976.031 762.562 976.062C760.708 976.084 758.853 976.072 757 976C756 975 756 975 755.867 972.75C755.87 971.842 755.872 970.935 755.875 970C755.872 969.092 755.87 968.185 755.867 967.25C756 965 756 965 757 964C759.666 963.911 762.306 963.885 764.973 963.902C765.77 963.904 766.568 963.905 767.39 963.907C769.947 963.912 772.505 963.925 775.062 963.938C776.792 963.943 778.522 963.947 780.252 963.951C784.501 963.962 788.751 963.979 793 964C793 967.96 793 971.92 793 976C789.04 976 785.08 976 781 976C780.67 982.6 780.34 989.2 780 996C783.63 996 787.26 996 791 996C791 999.63 791 1003.26 791 1007C787.37 1007 783.74 1007 780 1007C780 1015.25 780 1023.5 780 1032C783.63 1030.68 787.26 1029.36 791 1028C791.66 1028 792.32 1028 793 1028C793.66 1030.31 794.32 1032.62 795 1035C796.342 1033.84 796.342 1033.84 797.711 1032.66C798.932 1031.6 800.154 1030.55 801.375 1029.5C801.959 1028.99 802.543 1028.49 803.145 1027.97C803.744 1027.45 804.343 1026.94 804.961 1026.41C805.904 1025.58 805.904 1025.58 806.867 1024.73C809 1023 809 1023 811.668 1021.32C815.816 1018.56 818.544 1016.67 819.889 1011.74C820.207 1007.96 820.233 1004.29 820.125 1000.5C820.128 999.201 820.13 997.901 820.133 996.562C820.133 993.375 820.072 990.187 820 987C811.42 987 802.84 987 794 987C794 983.37 794 979.74 794 976C802.58 976 811.16 976 820 976C820 969.73 820 963.46 820 957Z" fill="#024487"/>
<path d="M1048 957C1051.63 957 1055.26 957 1059 957C1059 964.59 1059 972.18 1059 980C1062.96 980 1066.92 980 1071 980C1071 983.63 1071 987.26 1071 991C1067.04 991 1063.08 991 1059 991C1061.26 996.904 1064.38 1001.83 1068 1007C1068.62 1006.34 1069.24 1005.68 1069.88 1005C1072 1003 1072 1003 1074 1003C1074.25 1002.45 1074.5 1001.91 1074.75 1001.35C1076.26 998.505 1078.08 996.026 1080 993.438C1082.06 990.652 1084.08 987.881 1086 985C1090.39 985.51 1093.34 986.522 1097 989C1095.6 993.097 1093.64 995.938 1090.88 999.25C1088.31 1001.83 1088.31 1001.83 1087 1005C1088.32 1005 1089.64 1005 1091 1005C1091.54 1006.12 1092.09 1007.24 1092.64 1008.39C1093.37 1009.87 1094.09 1011.34 1094.81 1012.81C1095.17 1013.55 1095.53 1014.29 1095.89 1015.05C1096.24 1015.76 1096.6 1016.47 1096.96 1017.21C1097.28 1017.86 1097.6 1018.52 1097.93 1019.19C1099.07 1021.12 1100.36 1022.49 1102 1024C1105.87 1017.58 1108.62 1011.1 1111 1004C1113.97 1004.66 1116.94 1005.32 1120 1006C1118.59 1004.25 1117.17 1002.5 1115.75 1000.75C1114.57 999.288 1114.57 999.288 1113.36 997.797C1111.09 995.017 1111.09 995.017 1108.7 992.766C1107 991 1107 991 1107 989C1108.98 987.68 1110.96 986.36 1113 985C1092.71 984.505 1092.71 984.505 1072 984C1072 980.37 1072 976.74 1072 973C1080.58 973 1089.16 973 1098 973C1096.85 971.226 1095.69 969.452 1094.5 967.625C1091 962.25 1091 962.25 1091 960C1097.17 956.975 1097.17 956.975 1100.5 957.074C1103.98 958.365 1104.92 960.227 1106.81 963.375C1107.42 964.352 1108.02 965.329 1108.64 966.336C1110 969 1110 969 1110 972C1118.25 972.33 1126.5 972.66 1135 973C1135 976.63 1135 980.26 1135 984C1129.06 984.33 1123.12 984.66 1117 985C1118.49 986.423 1119.97 987.846 1121.5 989.312C1126.66 994.449 1130.9 999.977 1135 1006C1133.32 1009.74 1131.31 1011.56 1128 1014C1124.13 1012.25 1124.13 1012.25 1123 1010C1122.55 1010.99 1122.11 1011.98 1121.64 1013C1121.04 1014.33 1120.42 1015.67 1119.81 1017C1119.5 1017.69 1119.18 1018.37 1118.86 1019.08C1117.12 1022.82 1115.29 1026.28 1112.94 1029.69C1112.3 1030.78 1111.66 1031.87 1111 1033C1112.7 1038.53 1118.3 1041.23 1123 1044C1127.56 1046.24 1132.27 1048.14 1137 1050C1135.68 1052.79 1134.2 1055.26 1132.38 1057.75C1131.93 1058.36 1131.48 1058.98 1131.02 1059.61C1130.69 1060.07 1130.35 1060.53 1130 1061C1119.32 1058.06 1111.01 1052.56 1103 1045C1099.39 1046.6 1096.54 1048.82 1093.44 1051.25C1079.42 1062 1079.42 1062 1073 1062C1071.94 1060.37 1070.95 1058.7 1070 1057C1069.44 1056.44 1068.89 1055.89 1068.31 1055.31C1067.88 1054.88 1067.45 1054.45 1067 1054C1067 1053.34 1067 1052.68 1067 1052C1068.36 1051.36 1068.36 1051.36 1069.75 1050.71C1077.21 1047.15 1083.63 1043.33 1090 1038C1090.99 1037.34 1091.98 1036.68 1093 1036C1091.68 1032.44 1090.08 1029.34 1088.06 1026.12C1082 1016.18 1082 1016.18 1082 1011C1080.35 1012.32 1078.7 1013.64 1077 1015C1074.51 1013.8 1072.32 1012.55 1070 1011C1070.35 1011.58 1070.7 1012.15 1071.06 1012.75C1072 1015 1072 1015 1071.88 1016.88C1070.63 1019.9 1068.96 1022.39 1067 1025C1066.34 1025 1065.68 1025 1065 1025C1063.35 1021.7 1061.7 1018.4 1060 1015C1059.67 1030.51 1059.34 1046.02 1059 1062C1055.37 1062 1051.74 1062 1048 1062C1047.51 1041.21 1047.51 1041.21 1047 1020C1045.02 1024.95 1043.04 1029.9 1041 1035C1039.68 1037.31 1038.36 1039.62 1037 1042C1036.34 1042 1035.68 1042 1035 1042C1034.3 1040.61 1033.61 1039.21 1032.94 1037.81C1032.55 1037.04 1032.17 1036.26 1031.78 1035.46C1030.12 1030.22 1032.77 1026.22 1035.13 1021.56C1039.91 1011.79 1042.88 1001.4 1046 991C1042.04 991 1038.08 991 1034 991C1034 987.37 1034 983.74 1034 980C1038.62 980 1043.24 980 1048 980C1048 972.41 1048 964.82 1048 957Z" fill="#024487"/>
<path d="M684 957C685.625 957.141 687.25 957.288 688.875 957.438C689.78 957.519 690.685 957.6 691.617 957.684C694 958 694 958 696 959C695.67 961.31 695.34 963.62 695 966C702.92 966 710.84 966 719 966C719 968.97 719 971.94 719 975C718 976 718 976 715.592 976.114C714.549 976.108 713.507 976.103 712.434 976.098C711.309 976.094 710.184 976.091 709.025 976.088C707.841 976.08 706.657 976.071 705.437 976.062C704.25 976.058 703.062 976.053 701.838 976.049C698.892 976.037 695.946 976.021 693 976C692.67 977.32 692.34 978.64 692 980C693.037 979.992 693.037 979.992 694.095 979.984C697.209 979.963 700.323 979.95 703.437 979.938C704.526 979.929 705.615 979.921 706.736 979.912C707.771 979.909 708.805 979.906 709.871 979.902C710.829 979.897 711.788 979.892 712.775 979.886C715 980 715 980 716 981C716 983.97 716 986.94 716 990C706.76 990.33 697.52 990.66 688 991C687.67 991.99 687.34 992.98 687 994C698.22 994.33 709.44 994.66 721 995C721 998.3 721 1001.6 721 1005C716.71 1005 712.42 1005 708 1005C715.219 1014.87 715.219 1014.87 725 1022C725 1024 725 1024 722.562 1026.5C721.717 1027.32 720.871 1028.15 720 1029C719.67 1029.66 719.34 1030.32 719 1031C713.727 1029.56 710.506 1026 707 1022C706.67 1021.34 706.34 1020.68 706 1020C705.67 1022.31 705.34 1024.62 705 1027C701.37 1027 697.74 1027 694 1027C694 1029.31 694 1031.62 694 1034C700.93 1034 707.86 1034 715 1034C715 1037.63 715 1041.26 715 1045C708.4 1045 701.8 1045 695 1045C694.67 1050.61 694.34 1056.22 694 1062C690.04 1062 686.08 1062 682 1062C682 1056.39 682 1050.78 682 1045C674.41 1045 666.82 1045 659 1045C659 1041.37 659 1037.74 659 1034C666.59 1033.67 674.18 1033.34 682 1033C682 1031.35 682 1029.7 682 1028C677.71 1027.67 673.42 1027.34 669 1027C668.67 1025.68 668.34 1024.36 668 1023C667.301 1023.65 666.603 1024.3 665.883 1024.97C664.973 1025.8 664.063 1026.64 663.125 1027.5C662.22 1028.34 661.315 1029.17 660.383 1030.03C658 1032 658 1032 656 1032C654.641 1030.39 654.641 1030.39 653.25 1028.25C652.546 1027.21 652.546 1027.21 651.828 1026.14C651 1024 651 1024 651.703 1021.88C653.45 1019.35 655.495 1017.75 658 1016C658.66 1016 659.32 1016 660 1016C660.227 1015.46 660.454 1014.93 660.687 1014.38C662.434 1011.21 664.64 1008.73 667 1006C663.04 1005.67 659.08 1005.34 655 1005C655 1001.7 655 998.4 655 995C661.27 994.67 667.54 994.34 674 994C674.66 992.68 675.32 991.36 676 990C671.05 990 666.1 990 661 990C661 986.7 661 983.4 661 980C667.27 980 673.54 980 680 980C680 978.68 680 977.36 680 976C672.74 976 665.48 976 658 976C658 972.7 658 969.4 658 966C666.25 966 674.5 966 683 966C683.33 963.03 683.66 960.06 684 957ZM676.562 1009.88C675.071 1012.52 675.071 1012.52 674 1015C673.67 1015.66 673.34 1016.32 673 1017C676.3 1017 679.6 1017 683 1017C682.67 1013.7 682.34 1010.4 682 1007C685.96 1007 689.92 1007 694 1007C694 1010.3 694 1013.6 694 1017C697.3 1017 700.6 1017 704 1017C702.288 1012.36 700.437 1008.59 697 1005C689.227 1002.64 681.598 1002.71 676.562 1009.88Z" fill="#024487"/>
<path d="M87 962C111.75 962 136.5 962 162 962C162 985.76 162 1009.52 162 1034C137.25 1034 112.5 1034 87 1034C87 1010.24 87 986.48 87 962ZM99 973C99 976.3 99 979.6 99 983C115.83 983 132.66 983 150 983C150 979.7 150 976.4 150 973C133.17 973 116.34 973 99 973ZM99 993C99 996.3 99 999.6 99 1003C115.83 1003 132.66 1003 150 1003C150 999.7 150 996.4 150 993C133.17 993 116.34 993 99 993ZM144.297 1013.09C143.296 1013.11 142.295 1013.13 141.263 1013.15C140.175 1013.17 139.086 1013.2 137.965 1013.22C136.302 1013.25 136.302 1013.25 134.606 1013.29C131.05 1013.36 127.494 1013.43 123.938 1013.5C121.533 1013.55 119.129 1013.6 116.725 1013.64C110.816 1013.76 104.908 1013.88 99 1014C99 1016.97 99 1019.94 99 1023C115.83 1023 132.66 1023 150 1023C150 1019.7 150 1016.4 150 1013C148.099 1013 146.198 1013.05 144.297 1013.09Z" fill="#024487"/>
<path d="M406 957C409.96 957 413.92 957 418 957C418 962.28 418 967.56 418 973C428.23 973 438.46 973 449 973C449 976.96 449 980.92 449 985C438.77 985 428.54 985 418 985C418.495 989.95 418.495 989.95 419 995C427.25 995 435.5 995 444 995C444.115 1001.46 444.214 1007.92 444.275 1014.38C444.3 1016.58 444.334 1018.77 444.377 1020.97C444.438 1024.13 444.466 1027.29 444.488 1030.45C444.514 1031.43 444.54 1032.41 444.566 1033.42C444.568 1038.14 444.561 1040.27 441.606 1044.11C436.253 1047.99 430.386 1047.09 424 1047C423.01 1043.04 422.02 1039.08 421 1035C424.3 1035 427.6 1035 431 1035C431.33 1025.76 431.66 1016.52 432 1007C427.38 1007 422.76 1007 418 1007C418 1025.15 418 1043.3 418 1062C414.04 1062 410.08 1062 406 1062C406 1043.85 406 1025.7 406 1007C401.38 1007 396.76 1007 392 1007C392 1020.2 392 1033.4 392 1047C388.04 1047 384.08 1047 380 1047C380 1029.84 380 1012.68 380 995C388.25 995 396.5 995 405 995C405.33 991.7 405.66 988.4 406 985C396.1 985 386.2 985 376 985C376 981.04 376 977.08 376 973C385.9 973 395.8 973 406 973C406 967.72 406 962.44 406 957Z" fill="#024487"/>
<path d="M220 962C246.4 962 272.8 962 300 962C300 979.49 300 996.98 300 1015C286.47 1015.33 272.94 1015.66 259 1016C262.96 1018.64 266.92 1021.28 271 1024C273.372 1025.95 275.726 1027.93 278 1030C277.098 1031.18 276.178 1032.34 275.25 1033.5C274.484 1034.47 274.484 1034.47 273.703 1035.47C272 1037 272 1037 268 1037C265.301 1035.24 265.301 1035.24 262.312 1032.88C257.352 1029.01 252.288 1025.41 247 1022C248.152 1019.53 249.048 1017.95 251 1016C240.77 1015.67 230.54 1015.34 220 1015C220 997.51 220 980.02 220 962ZM231 973C231 976.63 231 980.26 231 984C238.59 984 246.18 984 254 984C254 980.37 254 976.74 254 973C246.41 973 238.82 973 231 973ZM266 973C266 976.63 266 980.26 266 984C273.26 984 280.52 984 288 984C288 980.37 288 976.74 288 973C280.74 973 273.48 973 266 973ZM231 993C231 996.63 231 1000.26 231 1004C238.59 1004 246.18 1004 254 1004C254 1000.37 254 996.74 254 993C246.41 993 238.82 993 231 993ZM266 993C266 996.63 266 1000.26 266 1004C273.26 1004 280.52 1004 288 1004C288 1000.37 288 996.74 288 993C280.74 993 273.48 993 266 993Z" fill="#024487"/>
<path d="M927 958C931 963.257 931 963.257 931 966C928.897 966.672 926.793 967.337 924.688 968C922.93 968.557 922.93 968.557 921.137 969.125C918 970 918 970 915 970C915 970.99 915 971.98 915 973C917.377 972.912 919.75 972.805 922.125 972.688C922.79 972.665 923.455 972.642 924.141 972.619C928.759 972.37 932.014 971.316 936 969C936 968.34 936 967.68 936 967C934.68 966.34 933.36 965.68 932 965C932 964.34 932 963.68 932 963C933.626 961.618 935.293 960.281 937 959C938.114 959.464 938.114 959.464 939.25 959.938C941.507 960.809 943.645 961.477 946 962C946.99 960.68 947.98 959.36 949 958C953.455 958.99 953.455 958.99 958 960C956.667 962.667 955.333 965.333 954 968C956.475 970.475 956.475 970.475 959 973C957.68 974.32 956.36 975.64 955 977C955.99 977.66 956.98 978.32 958 979C956.707 981.884 955.341 983.872 953 986C954.98 987.65 956.96 989.3 959 991C957.125 994.875 957.125 994.875 956 996C961.94 996.33 967.88 996.66 974 997C974 996.01 974 995.02 974 994C967.07 993.505 967.07 993.505 960 993C960 990.36 960 987.72 960 985C964.95 985 969.9 985 975 985C975 983.68 975 982.36 975 981C970.05 981 965.1 981 960 981C960 978.36 960 975.72 960 973C965.28 973 970.56 973 976 973C976 972.01 976 971.02 976 970C970.72 970 965.44 970 960 970C960 967.03 960 964.06 960 961C969.24 961 978.48 961 988 961C986.964 986.319 986.964 986.319 986 997C988.64 997 991.28 997 994 997C994 1004.59 994 1012.18 994 1020C990.04 1020 986.08 1020 982 1020C982 1015.38 982 1010.76 982 1006C957.58 1006 933.16 1006 908 1006C908 1010.62 908 1015.24 908 1020C904.37 1020 900.74 1020 897 1020C897 1012.41 897 1004.82 897 997C899.64 997 902.28 997 905 997C904.34 986.11 903.68 975.22 903 964C906.403 963.01 909.806 962.02 913.312 961C914.382 960.687 915.451 960.374 916.552 960.051C917.397 959.807 918.242 959.564 919.113 959.312C919.977 959.061 920.841 958.81 921.732 958.551C924 958 924 958 927 958ZM939 977C939.33 977.99 939.66 978.98 940 980C943.008 981.225 943.008 981.225 946 982C947.542 980.625 947.542 980.625 949 979C949 978.34 949 977.68 949 977C949.66 976.67 950.32 976.34 951 976C945.737 971.789 944.408 973.238 939 977ZM930 974C930 976.31 930 978.62 930 981C925.38 981 920.76 981 916 981C916 982.32 916 983.64 916 985C920.95 985 925.9 985 931 985C931 986.98 931 988.96 931 991C933.31 990.01 935.62 989.02 938 988C936.366 986.292 935.131 985.065 933 984C933.33 983.402 933.66 982.804 934 982.188C935.208 979.946 935.208 979.946 935 977C932.555 975.283 932.555 975.283 930 974ZM939 996C939 996.33 939 996.66 939 997C943.29 997 947.58 997 952 997C950.377 995.291 948.707 993.626 947 992C943.692 992 941.611 994.127 939 996ZM916 993C916 994.32 916 995.64 916 997C921.61 997 927.22 997 933 997C932.01 995.68 931.02 994.36 930 993C926.572 992.515 926.572 992.515 922.812 992.75C921.54 992.786 920.268 992.822 918.957 992.859C917.493 992.929 917.493 992.929 916 993Z" fill="#024487"/>
<path d="M915 1011C922.884 1010.87 930.767 1010.79 938.651 1010.73C941.333 1010.7 944.015 1010.67 946.697 1010.62C950.552 1010.56 954.406 1010.53 958.262 1010.51C960.06 1010.47 960.06 1010.47 961.895 1010.43C971.168 1010.43 971.168 1010.43 974.296 1013.41C976 1016 976 1016 976 1018C974.004 1019.39 972.027 1020.64 969.938 1021.88C968.249 1022.89 968.249 1022.89 966.527 1023.93C963.044 1026 959.519 1027.99 956 1030C957.764 1029.99 957.764 1029.99 959.564 1029.98C963.912 1029.97 968.26 1029.95 972.608 1029.95C974.492 1029.94 976.377 1029.93 978.262 1029.92C980.965 1029.91 983.668 1029.91 986.371 1029.9C987.219 1029.9 988.067 1029.89 988.941 1029.89C990.961 1029.89 992.981 1029.94 995 1030C997.603 1032.6 996 1037.32 996 1041C981.81 1041 967.62 1041 953 1041C952.67 1045.95 952.34 1050.9 952 1056C947.268 1060.73 944.725 1061.86 938.133 1062.2C936.797 1062.18 935.461 1062.16 934.125 1062.13C933.437 1062.12 932.748 1062.11 932.039 1062.1C930.359 1062.07 928.68 1062.04 927 1062C926.01 1058.37 925.02 1054.74 924 1051C929.28 1051 934.56 1051 940 1051C940 1048.03 940 1045.06 940 1042C925.15 1041.67 910.3 1041.34 895 1041C895 1037.37 895 1033.74 895 1030C909.52 1030 924.04 1030 939 1030C939.66 1028.68 940.32 1027.36 941 1026C944.63 1024.35 948.26 1022.7 952 1021C933.685 1020.51 933.685 1020.51 915 1020C915 1017.03 915 1014.06 915 1011Z" fill="#024487"/>
<path d="M634 957C637.63 957 641.26 957 645 957C645 964.92 645 972.84 645 981C648.63 981 652.26 981 656 981C656 984.63 656 988.26 656 992C651.05 992.495 651.05 992.495 646 993C646.71 994.036 647.421 995.073 648.152 996.141C649.081 997.51 650.009 998.88 650.937 1000.25C651.406 1000.93 651.875 1001.61 652.357 1002.32C652.805 1002.98 653.253 1003.64 653.715 1004.33C654.129 1004.94 654.542 1005.54 654.968 1006.17C656.074 1008.13 656.648 1009.78 657 1012C656.074 1013.92 656.074 1013.92 654.687 1015.75C654.013 1016.67 654.013 1016.67 653.324 1017.61C652.887 1018.07 652.45 1018.53 652 1019C651.34 1019 650.68 1019 650 1019C648.68 1016.36 647.36 1013.72 646 1011C645.67 1027.83 645.34 1044.66 645 1062C641.37 1062 637.74 1062 634 1062C633.67 1049.46 633.34 1036.92 633 1024C630.69 1029.28 628.38 1034.56 626 1040C624.515 1040.5 624.515 1040.5 623 1041C622.296 1039.61 621.612 1038.21 620.937 1036.81C620.555 1036.04 620.172 1035.26 619.777 1034.46C618.2 1029.47 620.514 1025.7 622.75 1021.25C627.161 1011.94 629.981 1002.09 632 992C628.37 992 624.74 992 621 992C621 988.37 621 984.74 621 981C625.29 981 629.58 981 634 981C634 973.08 634 965.16 634 957Z" fill="#024487"/>
<path d="M498 957C501.63 957 505.26 957 509 957C509 964.26 509 971.52 509 979C512.63 979 516.26 979 520 979C520 982.63 520 986.26 520 990C516.37 990 512.74 990 509 990C509.33 995.94 509.66 1001.88 510 1008C511.98 1007.34 513.96 1006.68 516 1006C517.32 1006 518.64 1006 520 1006C520.495 1011.45 520.495 1011.45 521 1017C517.04 1017.99 513.08 1018.98 509 1020C509.026 1021.03 509.052 1022.07 509.079 1023.13C509.17 1026.98 509.227 1030.83 509.275 1034.68C509.3 1036.34 509.334 1038.01 509.377 1039.67C509.438 1042.06 509.466 1044.46 509.488 1046.86C509.514 1047.6 509.54 1048.34 509.566 1049.1C509.569 1053.11 509.176 1054.79 506.592 1057.93C502.276 1061.38 499.808 1062.26 494.25 1062.12C493.265 1062.11 492.28 1062.09 491.266 1062.07C490.518 1062.05 489.77 1062.02 489 1062C488.494 1060.56 487.996 1059.13 487.5 1057.69C487.222 1056.89 486.943 1056.09 486.656 1055.26C486 1053 486 1053 486 1050C489.63 1050.33 493.26 1050.66 497 1051C497 1042.09 497 1033.18 497 1024C493.37 1024.99 489.74 1025.98 486 1027C483 1018.38 483 1018.38 483 1015C487.62 1013.68 492.24 1012.36 497 1011C497 1004.07 497 997.14 497 990C492.71 990 488.42 990 484 990C484 986.37 484 982.74 484 979C490.435 978.505 490.435 978.505 497 978C496.983 975.852 496.983 975.852 496.965 973.66C496.955 971.794 496.946 969.928 496.938 968.062C496.929 967.117 496.921 966.171 496.912 965.197C496.909 964.298 496.906 963.399 496.902 962.473C496.897 961.64 496.892 960.807 496.886 959.949C497 958 497 958 498 957Z" fill="#024487"/>
<path d="M565 992C569.165 991.961 572.942 992.016 577 993C577.15 998.084 576.637 1002.75 575.574 1007.7C575.426 1008.42 575.278 1009.13 575.125 1009.87C574.811 1011.38 574.494 1012.89 574.174 1014.4C573.693 1016.66 573.221 1018.93 572.752 1021.2C571.019 1029.52 569.124 1037.77 567 1046C573.6 1046 580.2 1046 587 1046C587 1049.63 587 1053.26 587 1057C564.23 1057 541.46 1057 518 1057C518 1053.37 518 1049.74 518 1046C530.21 1045.67 542.42 1045.34 555 1045C558.998 1027.41 562.17 1009.81 565 992Z" fill="#024487"/>
<path d="M236 1024C239.96 1024 243.92 1024 248 1024C248 1031.92 248 1039.84 248 1048C257.57 1048 267.14 1048 277 1048C277.66 1043.71 278.32 1039.42 279 1035C288.875 1037.88 288.875 1037.88 290 1039C290.063 1045.42 289.005 1051.81 285 1057C281.186 1059.67 276.941 1059.31 272.473 1059.3C271.647 1059.31 270.821 1059.31 269.97 1059.31C268.226 1059.32 266.482 1059.32 264.738 1059.32C262.075 1059.31 259.414 1059.34 256.752 1059.36C255.055 1059.36 253.357 1059.36 251.66 1059.36C250.867 1059.37 250.075 1059.38 249.258 1059.39C244.71 1059.35 241.643 1059.02 238 1056C235.571 1052.67 235.768 1049.51 235.805 1045.48C235.811 1044.23 235.818 1042.98 235.824 1041.7C235.841 1040.39 235.858 1039.09 235.875 1037.75C235.884 1036.43 235.893 1035.12 235.902 1033.76C235.926 1030.51 235.962 1027.25 236 1024Z" fill="#024487"/>
<path d="M555 957C556.048 959.473 556.902 961.82 557.688 964.375C557.912 965.061 558.137 965.747 558.369 966.453C559.315 969.408 560 971.88 560 975C559.01 975.33 558.02 975.66 557 976C570.86 976.495 570.86 976.495 585 977C585 980.63 585 984.26 585 988C564.54 988 544.08 988 523 988C523 984.37 523 980.74 523 977C531.25 977 539.5 977 548 977C546.359 971.868 546.359 971.868 544.709 966.739C543.756 963.723 543 961.181 543 958C544.435 957.636 545.873 957.284 547.312 956.937C548.113 956.74 548.914 956.543 549.738 956.34C552 956 552 956 555 957Z" fill="#024487"/>
<path d="M541 992C547.751 1025.5 547.751 1025.5 549 1040C547.564 1040.51 546.126 1041 544.688 1041.5C543.887 1041.78 543.086 1042.06 542.262 1042.34C540 1043 540 1043 537 1043C536.859 1041.99 536.718 1040.98 536.573 1039.95C536.043 1036.16 535.509 1032.38 534.974 1028.6C534.744 1026.97 534.515 1025.34 534.287 1023.71C532.644 1011.77 532.644 1011.77 530.345 999.941C530 998 530 998 530 994C531.458 993.664 532.916 993.331 534.375 993C535.593 992.722 535.593 992.722 536.836 992.438C539 992 539 992 541 992Z" fill="#024487"/>
<path d="M105 1035C108.229 1035.5 110.534 1036.8 113.25 1038.56C113.956 1039.02 114.663 1039.47 115.391 1039.94C115.922 1040.29 116.453 1040.64 117 1041C114.021 1049.11 100.8 1053.73 93.4375 1057.44C92.7593 1057.78 92.0811 1058.12 91.3823 1058.47C85.2738 1061.48 85.2738 1061.48 82 1062C79.8594 1060.42 79.8594 1060.42 77.75 1058.19C77.0436 1057.46 76.3372 1056.73 75.6094 1055.98C74 1054 74 1054 74 1052C74.9926 1051.6 75.9852 1051.2 77.0078 1050.79C92.0482 1044.63 92.0482 1044.63 105 1035Z" fill="#024487"/>
<path d="M144 1036C146.043 1036.95 148.053 1037.98 150.035 1039.05C151.174 1039.67 152.313 1040.28 153.486 1040.92C154.074 1041.24 154.661 1041.56 155.266 1041.89C157.057 1042.87 158.853 1043.84 160.65 1044.81C171.102 1050.48 171.102 1050.48 174 1053C174 1053.66 174 1054.32 174 1055C172.137 1056.73 172.137 1056.73 169.688 1058.62C168.487 1059.57 168.487 1059.57 167.262 1060.54C165 1062 165 1062 162 1062C162 1061.34 162 1060.68 162 1060C160.914 1059.59 160.914 1059.59 159.807 1059.17C157.094 1058.04 154.639 1056.75 152.094 1055.29C151.185 1054.76 150.276 1054.24 149.34 1053.71C148.403 1053.16 147.466 1052.62 146.5 1052.06C145.563 1051.52 144.626 1050.99 143.66 1050.43C141.103 1048.96 138.548 1047.49 136 1046C135.074 1045.49 134.148 1044.97 133.193 1044.45C132.47 1043.97 131.746 1043.49 131 1043C131 1042.34 131 1041.68 131 1041C132.574 1039.46 132.574 1039.46 134.688 1037.81C135.372 1037.26 136.056 1036.71 136.762 1036.14C139.713 1034.64 140.831 1035.12 144 1036Z" fill="#024487"/>
<path d="M367 1016C371.274 1017.58 373.265 1020.51 376 1024C370.338 1036.19 364.403 1048.18 358 1060C354.401 1059.44 353.001 1058.25 350.75 1055.44C350.229 1054.8 349.708 1054.16 349.172 1053.5C348.785 1053 348.398 1052.51 348 1052C348.49 1051.16 348.49 1051.16 348.99 1050.31C355.545 1039.09 361.801 1027.92 367 1016Z" fill="#024487"/>
<path d="M297 1022C298.598 1024.06 299.958 1026.04 301.312 1028.25C301.903 1029.19 301.903 1029.19 302.506 1030.16C312 1045.55 312 1045.55 312 1051C310.566 1051.67 309.127 1052.34 307.688 1053C306.887 1053.37 306.086 1053.74 305.262 1054.12C303 1055 303 1055 300 1055C299.732 1054.21 299.464 1053.42 299.188 1052.61C296.421 1044.92 293.102 1038.55 288.574 1031.78C287 1029 287 1029 287 1025C293.625 1022 293.625 1022 297 1022Z" fill="#024487"/>
<path d="M221 1023C224.799 1023.72 228.347 1024.73 232 1026C229.548 1036.54 225.782 1046.81 220 1056C216.209 1054.55 212.613 1052.85 209 1051C210.405 1047.32 212.058 1043.87 213.875 1040.38C216.735 1034.73 218.992 1029 221 1023Z" fill="#024487"/>
<path d="M355 959C360.179 960.468 364.344 962.815 368.875 965.625C369.563 966.045 370.252 966.465 370.961 966.898C372.644 967.927 374.322 968.963 376 970C374.617 973.578 373.044 976.748 371 980C368.007 979.394 365.912 978.472 363.398 976.75C362.744 976.307 362.089 975.863 361.414 975.406C360.741 974.942 360.068 974.478 359.375 974C358.029 973.082 356.683 972.166 355.336 971.25C354.743 970.843 354.151 970.435 353.541 970.016C351.964 968.932 351.964 968.932 350 968C351.498 964.888 353.199 961.947 355 959Z" fill="#024487"/>
<path d="M805 992C806.243 993.389 806.243 993.389 807.445 995.324C808.101 996.373 808.101 996.373 808.77 997.443C809.217 998.184 809.664 998.924 810.125 999.688C810.58 1000.41 811.035 1001.13 811.504 1001.87C813.758 1005.54 815.569 1008.63 816 1013C809.375 1017 809.375 1017 806 1017C805.541 1016.06 805.082 1015.12 804.609 1014.15C803.99 1012.89 803.37 1011.63 802.75 1010.38C802.45 1009.76 802.149 1009.14 801.84 1008.5C800.312 1005.42 798.723 1002.5 796.766 999.664C795 997 795 997 795 995C801.625 992 801.625 992 805 992Z" fill="#024487"/>
<path d="M350 989C354.291 990.589 358.262 992.65 362.25 994.875C362.887 995.214 363.524 995.553 364.18 995.902C368.71 998.437 368.71 998.437 370.043 1001.02C369.964 1004.65 367.908 1006.99 366 1010C361.729 1009.11 358.528 1006.95 354.938 1004.56C354.313 1004.15 353.688 1003.75 353.045 1003.33C350.354 1001.57 347.676 999.784 345 998C346.249 994.541 347.675 991.853 350 989Z" fill="#024487"/>
</svg>
